<?xml version="1.0" standalone="no"?>
<!DOCTYPE svg PUBLIC "-//W3C//DTD SVG 1.1//EN" "http://www.w3.org/Graphics/SVG/1.1/DTD/svg11.dtd" >
<svg xmlns="http://www.w3.org/2000/svg" xmlns:xlink="http://www.w3.org/1999/xlink" version="1.1">
<metadata>
Created by FontForge 20170924 at Wed Oct  5 09:14:16 2005
 By www-data
(c) Copyright 2005 by Tong Duc Thinh. All Rights Reserved
</metadata>
<defs>
<font id="SFUGillSans" horiz-adv-x="500" >
  <font-face 
    font-family="SFU GillSans"
    font-weight="400"
    font-stretch="normal"
    units-per-em="1000"
    panose-1="0 0 4 0 0 0 0 0 0 0"
    ascent="800"
    descent="-200"
    x-height="449"
    cap-height="682"
    bbox="-162 -250 1049 1134"
    underline-thickness="50"
    underline-position="-125"
    unicode-range="U+0020-F002"
  />
<missing-glyph 
d="M63 0v1134h375v-1134h-375zM125 63h250v1009h-250v-1009z" />
    <glyph glyph-name=".notdef" 
d="M63 0v1134h375v-1134h-375zM125 63h250v1009h-250v-1009z" />
    <glyph glyph-name=".null" horiz-adv-x="0" 
 />
    <glyph glyph-name="nonmarkingreturn" horiz-adv-x="278" 
 />
    <glyph glyph-name="space" unicode=" " horiz-adv-x="278" 
 />
    <glyph glyph-name="exclam" unicode="!" horiz-adv-x="271" 
d="M79 543q0 148 56 148t56 -148q0 -66 -6 -107l-25 -172q-9 -63 -25 -63t-25 63l-25 172q-6 41 -6 107zM136 111q25 0 42.5 -17.5t17.5 -42.5t-17.5 -42.5t-42.5 -17.5t-42.5 17.5t-17.5 42.5t17.5 42.5t42.5 17.5z" />
    <glyph glyph-name="quotedbl" unicode="&#x22;" horiz-adv-x="354" 
d="M241 462l-23 137v117h88v-117l-23 -137h-42zM71 462l-23 137v117h88v-117l-23 -137h-42z" />
    <glyph glyph-name="numbersign" unicode="#" horiz-adv-x="584" 
d="M196 617h72l-41 -195h194l41 195h72l-41 -195h91v-69h-105l-36 -170h141v-69h-155l-41 -195h-72l41 195h-194l-41 -195h-72l41 195h-90v69h104l36 170h-140v69h154zM213 353l-36 -170h194l36 170h-194z" />
    <glyph glyph-name="dollar" unicode="$" horiz-adv-x="542" 
d="M470 596v-108q-58 58 -149 79v-198q78 -21 125 -66q56 -53 56 -127q0 -75 -52 -126t-129 -59v-109h-82v109q-75 4 -188 70v121q47 -43 86 -64q43 -24 102 -37v216q-73 19 -124 59q-63 51 -63 116q0 78 56 127q50 44 131 56v36h82v-36q86 -7 149 -59zM239 396v171
q-36 -5 -61 -25q-28 -23 -28 -57q0 -59 89 -89zM321 262v-180q85 20 85 86q0 60 -85 94z" />
    <glyph glyph-name="percent" unicode="%" horiz-adv-x="680" 
d="M502 222q-32 0 -55.5 -23.5t-23.5 -55.5q0 -33 23 -56t56 -23t56 23t23 56t-23 56t-56 23zM502 296q63 0 108 -45t45 -108t-45 -108t-108 -45q-64 0 -108.5 44.5t-44.5 108.5q0 63 45 108t108 45zM602 691l-449 -701h-75l449 701h75zM178 690q63 0 108 -45t45 -108
t-45 -108t-108 -45q-64 0 -108.5 44.5t-44.5 108.5q0 63 45 108t108 45zM178 616q-32 0 -55.5 -23.5t-23.5 -55.5q0 -33 23 -56t56 -23t56 23t23 56t-23 56t-56 23z" />
    <glyph glyph-name="ampersand" unicode="&#x26;" horiz-adv-x="625" 
d="M495 339h98q-31 -89 -111 -179l138 -160h-126l-78 93q-113 -102 -216 -102q-70 0 -121 46.5t-51 115.5q0 108 161 201q-77 81 -77 158q0 74 51 117q48 40 124 40q68 0 116 -40.5t48 -107.5q0 -94 -125 -182l96 -110q44 44 73 110zM356 161l-111 128q-57 -35 -78 -55
q-42 -39 -41 -81q1 -31 27 -51.5t57 -20.5q66 0 146 80zM208 521q0 -55 63 -116q89 56 89 111q0 32 -23 51t-55 19q-30 0 -52 -17.5t-22 -47.5z" />
    <glyph glyph-name="quotesingle" unicode="'" horiz-adv-x="188" 
d="M73 462l-23 137v117h88v-117l-23 -137h-42z" />
    <glyph glyph-name="parenleft" unicode="(" horiz-adv-x="323" 
d="M167 232q0 -270 144 -462h-53q-90 89 -142 212.5t-52 249.5t52 249.5t142 212.5h53q-144 -192 -144 -462z" />
    <glyph glyph-name="parenright" unicode=")" horiz-adv-x="323" 
d="M156 232q0 270 -144 462h53q90 -89 142 -212.5t52 -249.5t-52 -249.5t-142 -212.5h-53q144 192 144 462z" />
    <glyph glyph-name="asterisk" unicode="*" horiz-adv-x="417" 
d="M177 513v0l-128 44q-38 13 -38 41q0 13 9.5 23.5t22.5 10.5q18 0 39 -18l100 -87q11 9 20 11l-25 130q-1 5 -1 15q0 43 34 43t34 -41q0 -7 -2 -17l-25 -130q13 -3 20 -12l100 87q20 17 39 17q13 0 22.5 -10.5t9.5 -23.5q0 -27 -39 -40l-125 -43q2 -6 0 -23l125 -43
q38 -13 38 -41q0 -13 -9.5 -23t-22.5 -10q-19 0 -39 17l-100 87q-10 -7 -20 -10l25 -131q1 -5 1 -15q0 -43 -34 -43t-34 41q0 7 2 17l25 131q-12 5 -19 12l-101 -88q-18 -16 -38 -16q-14 0 -23.5 9.5t-9.5 23.5q0 26 39 40l127 44q-2 4 -2 9q0 6 3 12z" />
    <glyph glyph-name="plus" unicode="+" horiz-adv-x="584" 
d="M251 589h82v-195h195v-82h-195v-195h-82v195h-195v82h195v195z" />
    <glyph glyph-name="comma" unicode="," horiz-adv-x="219" 
d="M59 -118v19q39 26 39 84q0 13 -3 25q-49 2 -49 56q0 26 16.5 41.5t42.5 15.5q36 0 55 -32q16 -26 16 -65q0 -51 -33 -90t-84 -54z" />
    <glyph glyph-name="hyphen" unicode="-" horiz-adv-x="323" 
d="M283 267v-93h-243v93h243z" />
    <glyph glyph-name="hyphen" unicode="&#x2010;" horiz-adv-x="323" 
d="M283 267v-93h-243v93h243z" />
    <glyph glyph-name="period" unicode="." horiz-adv-x="219" 
d="M109 111q25 0 42.5 -17.5t17.5 -42.5t-17.5 -42.5t-42.5 -17.5t-42.5 17.5t-17.5 42.5t17.5 42.5t42.5 17.5z" />
    <glyph glyph-name="slash" unicode="/" horiz-adv-x="281" 
d="M8 -9l196 700h70l-196 -700h-70z" />
    <glyph glyph-name="zero" unicode="0" 
d="M470 341q0 -130 -45 -226q-59 -124 -175 -124t-175 124q-45 96 -45 226q0 131 45 226q59 124 175 124t175 -124q45 -95 45 -226zM372 341q0 91 -20 157q-31 100 -102 100t-102 -100q-20 -66 -20 -157t20 -157q31 -100 102 -100t102 100q20 66 20 157z" />
    <glyph glyph-name="one" unicode="1" 
d="M300 682v-682h-98v682h98z" />
    <glyph glyph-name="two" unicode="2" 
d="M466 93v-93h-432v7q88 106 125 154q72 92 103 144q57 95 57 162q0 54 -32 91t-85 37q-82 0 -154 -92v123q81 65 161 65q93 0 150.5 -59.5t57.5 -153.5q0 -80 -49 -166q-44 -77 -163 -219h261z" />
    <glyph glyph-name="three" unicode="3" 
d="M81 569v93q59 29 131 29q87 0 142 -45q59 -48 59 -133q0 -105 -87 -153q50 -15 75 -64q23 -42 23 -98q0 -93 -60.5 -150t-154.5 -57q-69 0 -145 39v106q77 -52 152 -52q50 0 80 29.5t30 79.5q0 60 -44 90q-40 28 -102 24v90q135 0 135 99q0 50 -33.5 76t-84.5 26
t-116 -29z" />
    <glyph glyph-name="four" unicode="4" 
d="M398 691v-379h73v-88h-73v-224h-98v224h-289v45l345 422h42zM298 506l-156 -194h158v194h-2z" />
    <glyph glyph-name="five" unicode="5" 
d="M404 682v-88h-214v-171q106 7 175 -50q73 -59 73 -164q0 -96 -63 -157t-160 -61q-82 0 -165 42v101q74 -50 149 -50q55 0 96 34q45 36 45 89q0 63 -51 98q-46 32 -111 32q-36 0 -77 -10v355h303z" />
    <glyph glyph-name="six" unicode="6" 
d="M317 691l59 -75q-71 -41 -127 -106q-60 -70 -82 -144q54 28 107 28q84 0 137.5 -57.5t53.5 -141.5q0 -83 -59 -143.5t-142 -60.5q-102 0 -163 71q-57 67 -57 171q0 138 78 262q72 113 195 196zM146 265q-6 -25 -6 -48q0 -54 32 -92q33 -41 86 -41q50 0 79.5 31t29.5 81
q0 47 -33 76t-80 29q-53 0 -108 -36z" />
    <glyph glyph-name="seven" unicode="7" 
d="M490 682l-309 -691l-87 38l250 560h-295v93h441z" />
    <glyph glyph-name="eight" unicode="8" 
d="M468 184q0 -86 -66 -141q-62 -52 -150 -52q-89 0 -152 52q-68 55 -68 142q0 106 97 163q-81 59 -81 147q0 86 61 141t148 55q86 0 143.5 -56t57.5 -142q0 -89 -85 -145q95 -50 95 -164zM360 495q0 45 -30 74t-75 29q-48 0 -78.5 -27t-30.5 -74q0 -43 32 -73.5t75 -30.5
t75 29.5t32 72.5zM370 192q0 49 -34 78.5t-84 29.5q-52 0 -86 -27q-36 -30 -36 -81q0 -49 35 -78.5t85 -29.5q51 0 85.5 29t34.5 79z" />
    <glyph glyph-name="nine" unicode="9" 
d="M187 -9l-60 72q177 115 208 256q-48 -29 -106 -29q-82 0 -137.5 58t-55.5 141q0 85 61 143.5t147 58.5q100 0 161 -76q56 -71 56 -173q0 -130 -81 -258q-77 -122 -193 -193zM134 490q0 -46 34.5 -76.5t81.5 -30.5q52 0 105 37q5 24 5 55q0 49 -33 86t-81 37t-80 -30
t-32 -78z" />
    <glyph glyph-name="colon" unicode=":" horiz-adv-x="219" 
d="M109 458q25 0 42.5 -17.5t17.5 -42.5t-17.5 -42.5t-42.5 -17.5t-42.5 17.5t-17.5 42.5t17.5 42.5t42.5 17.5zM109 111q25 0 42.5 -17.5t17.5 -42.5t-17.5 -42.5t-42.5 -17.5t-42.5 17.5t-17.5 42.5t17.5 42.5t42.5 17.5z" />
    <glyph glyph-name="semicolon" unicode=";" horiz-adv-x="219" 
d="M61 -115v19q44 37 40 107q-53 7 -53 59q0 61 60 61q33 0 51 -31q16 -27 16 -62q0 -119 -114 -153zM169 398q0 -25 -17.5 -42.5t-42.5 -17.5t-42.5 17.5t-17.5 42.5t17.5 42.5t42.5 17.5t42.5 -17.5t17.5 -42.5z" />
    <glyph glyph-name="less" unicode="&#x3c;" horiz-adv-x="584" 
d="M55 313v82l474 202v-87l-376 -156l376 -156v-87z" />
    <glyph glyph-name="equal" unicode="=" horiz-adv-x="584" 
d="M56 503h472v-82h-472v82zM56 285h472v-82h-472v82z" />
    <glyph glyph-name="greater" unicode="&#x3e;" horiz-adv-x="584" 
d="M529 313l-474 -202v87l376 156l-376 156v87l474 -202v-82z" />
    <glyph glyph-name="question" unicode="?" horiz-adv-x="333" 
d="M82 595l47 96q69 1 115 -38t46 -107t-42 -140q-26 -40 -76 -122q-39 -65 -33 -109q-59 30 -59 92q0 50 56 139t56 128q0 30 -18 48.5t-48 18.5q-11 0 -44 -6zM154 111q25 0 42.5 -17.5t17.5 -42.5t-17.5 -42.5t-42.5 -17.5t-42.5 17.5t-17.5 42.5t17.5 42.5t42.5 17.5z
" />
    <glyph glyph-name="at" unicode="@" horiz-adv-x="1010" 
d="M891 9h90q-133 -219 -433 -219q-220 0 -352 108q-142 116 -142 331q0 187 110 329q133 171 373 171q176 0 294 -101q125 -107 125 -280q0 -125 -82 -233q-88 -117 -210 -117q-97 0 -97 82q-70 -81 -148 -81q-84 0 -134 71q-45 62 -45 150q0 108 71 205q78 104 183 104
q93 0 147 -90l17 76h88l-82 -377q-3 -14 -3 -22q0 -38 35 -38q25 0 66 30q121 88 121 241q0 141 -107 228q-99 81 -243 81q-179 0 -292.5 -120.5t-113.5 -300.5q0 -187 120 -285q111 -90 302 -90q239 0 342 147zM331 213q0 -57 25 -96q29 -46 83 -46q75 0 128 88
q46 77 46 157q0 59 -26 98q-30 44 -87 44q-75 0 -126 -88q-43 -76 -43 -157z" />
    <glyph glyph-name="A" unicode="A" horiz-adv-x="667" 
d="M362 686l305 -686h-100l-91 201h-290l-86 -201h-100l293 686h69zM326 536l-102 -247h212z" />
    <glyph glyph-name="B" unicode="B" horiz-adv-x="563" 
d="M75 0v682h198q87 0 145 -42q65 -48 65 -132q0 -104 -104 -146v-2q74 -13 117 -58q47 -48 47 -120q0 -90 -75 -139q-64 -43 -159 -43h-234zM173 594v-204h65q144 0 144 109q0 95 -119 95h-90zM173 302v-214h123q146 0 146 108q0 57 -50 84q-39 22 -101 22h-118z" />
    <glyph glyph-name="C" unicode="C" horiz-adv-x="708" 
d="M656 635v-105q-122 71 -235 71q-115 0 -193.5 -73t-78.5 -188q0 -119 78 -189t198 -70q119 0 238 77v-107q-115 -60 -247 -60q-176 0 -280 116q-88 99 -88 224q0 160 108 261q105 99 266 99q100 0 234 -56z" />
    <glyph glyph-name="D" unicode="D" horiz-adv-x="750" 
d="M76 0v682h265q176 0 276 -110q87 -96 87 -231q0 -149 -107 -247q-104 -94 -255 -94h-266zM174 594v-506h156q147 0 220 95q53 69 53 158q0 122 -79 189q-74 64 -199 64h-151z" />
    <glyph glyph-name="E" unicode="E" 
d="M462 682v-88h-289v-206h279v-88h-279v-212h298v-88h-396v682h387z" />
    <glyph glyph-name="F" unicode="F" horiz-adv-x="469" 
d="M440 682v-88h-266v-189h266v-88h-266v-317h-98v682h364z" />
    <glyph glyph-name="G" unicode="G" horiz-adv-x="740" 
d="M673 336v-289q-127 -56 -260 -56q-155 0 -259 96t-104 250t107 255q104 99 259 99q105 0 243 -58v-99q-122 67 -245 67q-112 0 -187.5 -74.5t-75.5 -186.5q0 -117 80 -189q77 -70 196 -70q63 0 148 27v140h-131v88h229z" />
    <glyph glyph-name="H" unicode="H" horiz-adv-x="729" 
d="M653 682v-682h-98v297h-382v-297h-98v682h98v-297h382v297h98z" />
    <glyph glyph-name="I" unicode="I" horiz-adv-x="250" 
d="M174 682v-682h-98v682h98z" />
    <glyph glyph-name="J" unicode="J" horiz-adv-x="250" 
d="M174 682v-690q0 -222 -188 -222q-10 0 -30 2l-18 91h25q73 0 96 39q17 29 17 119v661h98z" />
    <glyph glyph-name="K" unicode="K" horiz-adv-x="656" 
d="M285 359l370 -359h-135l-347 337v-337h-98v682h98v-312l287 312h122z" />
    <glyph glyph-name="L" unicode="L" horiz-adv-x="490" 
d="M172 682v-594h308v-88h-406v682h98z" />
    <glyph glyph-name="M" unicode="M" horiz-adv-x="781" 
d="M709 682v-682h-98v531h-2l-210 -264h-16l-210 264h-2v-531h-98v682h92l226 -280l227 280h91z" />
    <glyph glyph-name="N" unicode="N" horiz-adv-x="781" 
d="M706 682v-682h-84l-456 525v-525h-92v682h78l462 -528v528h92z" />
    <glyph glyph-name="O" unicode="O" horiz-adv-x="823" 
d="M45 341q0 154 107 253q104 97 259 97q157 0 261 -96q106 -99 106 -254t-108 -254q-104 -96 -261 -96q-154 0 -259 98.5t-105 251.5zM146 341q0 -113 75.5 -186.5t189.5 -73.5t190 73t76 187t-76 187t-190 73t-189.5 -73.5t-75.5 -186.5z" />
    <glyph glyph-name="P" unicode="P" horiz-adv-x="510" 
d="M70 682h213q97 0 155 -49q62 -52 62 -147q0 -96 -69 -147q-61 -44 -161 -44h-102v-295h-98v682zM168 594v-211h111q53 0 86.5 27.5t33.5 79.5q0 51 -31.5 77.5t-84.5 26.5h-115z" />
    <glyph glyph-name="Q" unicode="Q" horiz-adv-x="823" 
d="M496 0v-1q131 -56 199 -56q29 0 56 8l3 -3l-88 -87q-163 12 -335 139q-127 24 -206.5 118.5t-79.5 222.5q0 159 109 257q105 93 267 93q153 0 256 -100t103 -252q0 -125 -80 -220t-204 -119zM417 601q-138 0 -212 -92q-59 -73 -59 -169q0 -120 76 -189.5t197 -69.5
q110 0 185 73.5t75 183.5q0 113 -74.5 188t-187.5 75z" />
    <glyph glyph-name="R" unicode="R" horiz-adv-x="604" 
d="M77 682h172q97 0 157 -46q67 -51 67 -145q0 -122 -114 -167q43 -29 80 -78q19 -26 72 -111q26 -42 93 -135h-117l-90 140q-64 99 -105 131q-32 25 -76 25h-41v-296h-98v682zM175 598v-214h63q136 0 134 111q-2 103 -134 103h-63z" />
    <glyph glyph-name="S" unicode="S" horiz-adv-x="458" 
d="M399 643v-111q-75 71 -160 71q-42 0 -72 -19q-36 -22 -36 -62q0 -53 76 -100l143 -89q76 -64 76 -157q0 -82 -54.5 -133.5t-136.5 -51.5q-107 0 -191 63v124q77 -99 180 -99q42 0 74 21q37 25 37 65q0 58 -76 110q-40 27 -143 93q-76 62 -76 141q0 87 61 137
q56 45 146 45q80 0 152 -48z" />
    <glyph glyph-name="T" unicode="T" horiz-adv-x="604" 
d="M587 682v-88h-236v-594h-98v594h-236v88h570z" />
    <glyph glyph-name="U" unicode="U" horiz-adv-x="708" 
d="M648 682v-414q0 -137 -84 -209q-79 -68 -219 -68q-126 0 -203 70q-81 72 -81 197v424h98v-403q0 -99 41 -140q58 -58 147 -58q105 0 160 55q43 43 43 149v397h98z" />
    <glyph glyph-name="V" unicode="V" horiz-adv-x="604" 
d="M604 682l-289 -688h-20l-295 688h98l205 -479l204 479h97z" />
    <glyph glyph-name="W" unicode="W" horiz-adv-x="1042" 
d="M1041 682l-277 -688h-19l-224 558l-226 -558h-19l-276 688h98l188 -470l189 470h93l190 -470l186 470h97z" />
    <glyph glyph-name="X" unicode="X" horiz-adv-x="708" 
d="M687 682l-272 -329l291 -353h-118l-232 282l-235 -282h-119l294 353l-273 329h119l214 -260l213 260h118z" />
    <glyph glyph-name="Y" unicode="Y" horiz-adv-x="604" 
d="M301 447l185 235h118l-253 -322v-360h-98v361l-253 321h118z" />
    <glyph glyph-name="Z" unicode="Z" horiz-adv-x="646" 
d="M450 594h-407v88h588l-434 -594h434v-88h-615z" />
    <glyph glyph-name="bracketleft" unicode="[" horiz-adv-x="333" 
d="M319 682v-80h-137v-743h137v-80h-233v903h233z" />
    <glyph glyph-name="backslash" unicode="\" horiz-adv-x="281" 
d="M274 -9h-70l-196 700h70z" />
    <glyph glyph-name="bracketright" unicode="]" horiz-adv-x="333" 
d="M14 -221v80h137v743h-137v80h233v-903h-233z" />
    <glyph glyph-name="asciicircum" unicode="^" horiz-adv-x="469" 
d="M116 291h-90l173 391h71l173 -391h-89l-120 292z" />
    <glyph glyph-name="underscore" unicode="_" 
d="M-6 -75h512v-50h-512v50z" />
    <glyph glyph-name="grave" unicode="`" horiz-adv-x="333" 
d="M160 654l67 -147h-55l-112 147h100z" />
    <glyph glyph-name="a" unicode="a" horiz-adv-x="427" 
d="M411 80v-54q-53 -35 -86 -35q-56 0 -68 46q-58 -46 -121 -46q-47 0 -78.5 31.5t-31.5 78.5q0 60 49 95q28 20 104 47l79 28v24q0 79 -81 79q-80 0 -142 -74v97q52 61 149 61q74 0 118.5 -38t44.5 -110v-231q0 -23 17 -23q15 0 47 24zM258 91v131q-70 -24 -99 -42
q-43 -27 -43 -63q0 -28 18 -45.5t46 -17.5q39 0 78 37z" />
    <glyph glyph-name="b" unicode="b" 
d="M148 682v-265q57 41 124 41q89 0 144 -69q50 -63 50 -155q0 -114 -63 -178.5t-177 -64.5q-96 0 -167 34v657h89zM148 332v-243q46 -14 90 -14q62 0 99.5 41.5t37.5 104.5q0 64 -30 108q-33 49 -95 49q-51 0 -102 -46z" />
    <glyph glyph-name="c" unicode="c" horiz-adv-x="438" 
d="M393 427v-95q-66 44 -124 44q-64 0 -100.5 -43.5t-36.5 -108.5q0 -70 41 -109.5t111 -39.5q52 0 119 30v-88q-56 -26 -134 -26q-100 0 -164 62.5t-64 162.5q0 108 57 173q59 69 165 69q60 0 130 -31z" />
    <glyph glyph-name="d" unicode="d" horiz-adv-x="510" 
d="M451 682v-682h-189q-103 0 -162 67q-56 63 -56 168q0 98 62.5 160.5t161.5 62.5q44 0 94 -18v242h89zM362 75v286q-42 17 -83 17q-67 0 -105.5 -44t-38.5 -112q0 -147 137 -147h90z" />
    <glyph glyph-name="e" unicode="e" horiz-adv-x="479" 
d="M438 130v-86q-79 -53 -179 -53q-99 0 -160 71q-58 68 -58 168q0 98 56.5 163t153.5 65q102 0 153 -75q42 -64 42 -172h-316q21 -135 151 -135q74 0 157 54zM132 270h226q-2 50 -29 80.5t-76 30.5q-102 0 -121 -111z" />
    <glyph glyph-name="f" unicode="f" horiz-adv-x="250" 
d="M296 682v-87q-20 8 -40 8q-95 0 -95 -111v-43h81v-80h-81v-369h-89v369h-63v80h63v33q0 84 38 142q44 68 123 68q29 0 63 -10z" />
    <glyph glyph-name="g" unicode="g" horiz-adv-x="427" 
d="M421 449v-69h-92q47 -47 47 -98q0 -57 -42 -101q-26 -27 -74 -38q-32 -7 -63 -13q-45 -13 -45 -34q0 -31 137 -58q130 -26 130 -125q0 -77 -71 -114q-56 -29 -141 -29q-76 0 -134 30q-73 37 -73 106q0 96 113 124q-45 28 -45 57q0 47 71 64v2q-99 42 -99 141q0 79 61 120
q52 35 135 35h185zM296 293q0 33 -26.5 56t-60.5 23q-35 0 -62 -23t-27 -58q0 -38 25.5 -60t64.5 -22q38 0 62 23t24 61zM333 -94q0 40 -57 59q-40 13 -90 13q-38 0 -66 -15q-36 -18 -36 -53q0 -69 125 -69q124 0 124 65z" />
    <glyph glyph-name="h" unicode="h" 
d="M150 682v-292h2q54 68 134 68q78 0 118 -54q35 -48 35 -129v-275h-89v278q0 46 -21 75q-23 34 -67 34q-54 0 -112 -65v-322h-89v682h89z" />
    <glyph glyph-name="i" unicode="i" horiz-adv-x="219" 
d="M154 449v-449h-89v449h89zM163 585q0 -22 -15.5 -37.5t-37.5 -15.5t-37.5 15.5t-15.5 37.5t15.5 37.5t37.5 15.5t37.5 -15.5t15.5 -37.5z" />
    <glyph glyph-name="j" unicode="j" horiz-adv-x="219" 
d="M150 449v-508q0 -64 -17 -101q-20 -42 -72 -70l-67 66q67 27 67 98v515h89zM159 585q0 -22 -15.5 -37.5t-37.5 -15.5t-37.5 15.5t-15.5 37.5t15.5 37.5t37.5 15.5t37.5 -15.5t15.5 -37.5z" />
    <glyph glyph-name="k" unicode="k" horiz-adv-x="479" 
d="M460 449l-192 -220l232 -229h-120l-225 229l199 220h106zM151 682v-682h-89v682h89z" />
    <glyph glyph-name="l" unicode="l" horiz-adv-x="219" 
d="M154 682v-682h-89v682h89z" />
    <glyph glyph-name="m" unicode="m" horiz-adv-x="771" 
d="M59 449h89v-59q68 68 131 68q88 0 134 -81q72 81 150 81q73 0 113 -53q36 -48 36 -123v-282h-89v278q0 46 -24 75t-69 30q-44 1 -100 -57v-326h-89v279q0 104 -81 104q-63 0 -112 -57v-326h-89v449z" />
    <glyph glyph-name="n" unicode="n" 
d="M150 449v-59h2q54 68 134 68q76 0 116 -54q37 -48 37 -127v-277h-89v278q0 46 -21 75q-23 34 -67 34q-54 0 -112 -65v-322h-89v449h89z" />
    <glyph glyph-name="o" unicode="o" horiz-adv-x="552" 
d="M273 458q104 0 173.5 -63t69.5 -166q0 -107 -67.5 -172.5t-175.5 -65.5q-104 0 -170.5 67t-66.5 171q0 99 69 164t168 65zM272 378q-64 0 -104.5 -42.5t-40.5 -106.5q0 -69 38 -112q39 -46 107 -46q72 0 112.5 42.5t40.5 114.5q0 66 -43.5 108t-109.5 42z" />
    <glyph glyph-name="p" unicode="p" 
d="M146 11v-241h-89v679h154q118 0 183 -54q70 -58 70 -174q0 -101 -63.5 -165.5t-164.5 -64.5q-41 0 -90 20zM146 369v-278q42 -20 84 -20q63 0 103 43.5t40 107.5q0 147 -146 147h-81z" />
    <glyph glyph-name="q" unicode="q" 
d="M354 -230v237q-53 -16 -90 -16q-101 0 -164.5 64.5t-63.5 165.5q0 81 44 141q63 87 199 87h164v-679h-89zM354 369h-81q-66 0 -106 -40.5t-40 -106.5q0 -65 39 -109q40 -47 104 -47q42 0 84 20v283z" />
    <glyph glyph-name="r" unicode="r" horiz-adv-x="396" 
d="M69 449h89v-103h2q64 112 130 112q52 0 107 -52l-47 -77q-46 44 -83 44q-51 0 -82 -45q-27 -40 -27 -93v-235h-89v449z" />
    <glyph glyph-name="s" unicode="s" horiz-adv-x="385" 
d="M324 421v-88q-71 47 -130 47t-59 -41q0 -22 109 -90q101 -63 101 -126q0 -61 -43 -96.5t-105 -35.5q-77 0 -156 41v96q88 -61 147 -59q66 2 66 51q0 25 -54 57q-92 55 -102 63q-54 44 -54 96q0 61 45 93q40 29 103 29q62 0 132 -37z" />
    <glyph glyph-name="t" unicode="t" horiz-adv-x="333" 
d="M167 542v-93h142v-80h-142v-230q0 -68 64 -68q47 0 101 33v-83q-55 -30 -108 -30q-67 0 -106.5 37.5t-39.5 103.5v237h-78v10z" />
    <glyph glyph-name="u" unicode="u" 
d="M437 0h-89v57q-61 -66 -133 -66q-76 0 -117 53q-38 48 -38 126v279h89v-285q0 -99 92 -99q62 0 107 63v321h89v-449z" />
    <glyph glyph-name="v" unicode="v" horiz-adv-x="438" 
d="M206 -9l-203 458h97l121 -276l118 276h95l-198 -458h-30z" />
    <glyph glyph-name="w" unicode="w" horiz-adv-x="719" 
d="M393 449l114 -272l117 272h95l-198 -458h-28l-133 314l-132 -314h-28l-200 458h95l118 -272l114 272h66z" />
    <glyph glyph-name="x" unicode="x" 
d="M487 449l-185 -221l198 -228h-114l-141 161l-133 -161h-112l189 228l-189 221h112l133 -154l128 154h114z" />
    <glyph glyph-name="y" unicode="y" horiz-adv-x="438" 
d="M438 449l-318 -679h-99l153 326l-174 353h101l121 -253l116 253h100z" />
    <glyph glyph-name="z" unicode="z" horiz-adv-x="417" 
d="M404 449l-239 -369h240v-80h-394l238 369h-228v80h383z" />
    <glyph glyph-name="braceleft" unicode="{" horiz-adv-x="333" 
d="M28 219v80q63 0 86 54q15 35 15 109v88q0 86 27 128q34 50 115 50h39v-76h-15q-55 0 -71 -24q-13 -18 -13 -77v-72q0 -87 -15 -130q-23 -63 -87 -90q64 -27 87 -90q15 -43 15 -130v-72q0 -59 13 -77q16 -24 71 -24h15v-76h-39q-81 0 -115 51q-27 41 -27 127v88
q0 74 -15 109q-23 54 -86 54z" />
    <glyph glyph-name="bar" unicode="|" horiz-adv-x="260" 
d="M92 -250v1000h76v-1000h-76z" />
    <glyph glyph-name="braceright" unicode="}" horiz-adv-x="333" 
d="M305 299v-80q-63 0 -86 -54q-15 -35 -15 -109v-88q0 -86 -27 -127q-34 -51 -115 -51h-39v76h15q55 0 71 24q13 18 13 77v72q0 87 15 130q23 63 87 90q-64 27 -87 90q-15 43 -15 130v72q0 59 -13 77q-16 24 -71 24h-15v76h39q81 0 115 -50q27 -42 27 -128v-88
q0 -74 15 -109q23 -54 86 -54z" />
    <glyph glyph-name="asciitilde" unicode="~" horiz-adv-x="584" 
d="M25 198v0v83q76 64 149 64q41 0 125 -38t121 -38q58 0 140 67v-83q-75 -64 -146 -64q-42 0 -124 38t-123 38q-55 0 -142 -67z" />
    <glyph glyph-name="dagger" unicode="&#x2020;" horiz-adv-x="490" 
d="M249 691q45 0 45 -94q0 -35 -29 -183q76 26 127 26q26 0 45 -9q26 -12 26 -35t-23 -36q-19 -10 -44 -10q-36 0 -132 26q32 -371 32 -444q0 -162 -52 -162q-37 0 -48 56q-5 25 -5 87q0 145 34 463q-80 -26 -127 -26q-71 0 -71 43q0 47 73 47q53 0 125 -26q-28 133 -28 182
q0 95 52 95z" />
    <glyph glyph-name="cent" unicode="&#xa2;" horiz-adv-x="438" 
d="M408 620l-63 -175q18 -6 45 -19v-94q-32 26 -73 36l-102 -281q31 -13 68 -13q62 0 117 31v-86q-77 -28 -139 -28q-37 0 -76 9l-69 -190h-47l77 209q-51 29 -80 84q-28 52 -28 113q0 107 59 174.5t165 67.5q20 0 41 -3l59 165h46zM178 109l96 266q-65 5 -107 -43
q-38 -45 -38 -111q0 -69 49 -112z" />
    <glyph glyph-name="sterling" unicode="&#xa3;" horiz-adv-x="531" 
d="M333 374v-88h-102l-50 -189q15 2 40 2q29 0 87 -7.5t87 -7.5q67 0 101 20v-95q-51 -18 -105 -18q-28 0 -85 7.5t-85 7.5q-85 0 -162 -15l79 295h-72v88h95q92 317 251 317q18 0 37 -4l52 -98h-11q-24 9 -53 9q-74 0 -123 -79q-29 -48 -57 -145h76z" />
    <glyph glyph-name="section" unicode="&#xa7;" horiz-adv-x="406" 
d="M150 559q0 -54 58 -114l108 -110q58 -72 58 -152q0 -77 -74 -151q35 -52 35 -113q0 -65 -46.5 -107t-112.5 -42q-44 0 -77 23q-36 26 -36 68q0 24 16 42t40 18q20 0 33.5 -13.5t13.5 -33.5q0 -4 -2.5 -12.5t-2.5 -12.5q0 -15 24 -15q29 0 50.5 21t21.5 50q0 46 -65 125
q-1 1 -102 109q-58 77 -58 157q0 84 66 144q-28 48 -28 98q0 53 32 96q42 57 121 57q45 0 78 -20q39 -23 39 -65q0 -24 -14.5 -39.5t-37.5 -15.5q-16 0 -28 11.5t-12 27.5q0 21 -4 27q-5 10 -25 10q-69 0 -69 -68zM140 384q-32 -32 -32 -72q0 -58 49 -113q34 -36 102 -109
q37 37 37 85q0 56 -53 110q-1 1 -103 99z" />
    <glyph glyph-name="bullet" unicode="&#x2022;" horiz-adv-x="354" 
d="M177 465q51 0 87.5 -36.5t36.5 -87.5t-36.5 -87.5t-87.5 -36.5t-87.5 36.5t-36.5 87.5t36.5 87.5t87.5 36.5z" />
    <glyph glyph-name="paragraph" unicode="&#xb6;" horiz-adv-x="542" 
d="M198 -199v510q-91 5 -144 58.5t-53 144.5q0 102 65 154q60 48 165 48h309v-80h-70v-835h-83v835h-109v-835h-80z" />
    <glyph glyph-name="germandbls" unicode="&#xdf;" 
d="M59 0v517q0 83 54 130q51 44 136 44q84 0 135 -40q55 -43 55 -125q0 -108 -99 -149v-2q63 -16 96 -66q31 -46 31 -113q0 -88 -45 -144q-50 -61 -135 -61q-24 0 -64 9v87q24 -11 48 -11q50 0 79 37q26 33 26 85q0 138 -145 134v80q117 -3 117 104q0 44 -27.5 75t-70.5 31
q-102 0 -102 -116v-506h-89z" />
    <glyph glyph-name="acute" unicode="&#xb4;" horiz-adv-x="333" 
d="M178 654h100l-112 -147h-55z" />
    <glyph glyph-name="dieresis" unicode="&#xa8;" horiz-adv-x="333" 
d="M74 628q20 0 33 -13t13 -33t-13 -33.5t-33 -13.5q-19 0 -33 14t-14 33q0 20 13.5 33t33.5 13zM260 628q20 0 33 -13t13 -33t-13 -33.5t-33 -13.5q-19 0 -33 14t-14 33q0 20 13.5 33t33.5 13z" />
    <glyph glyph-name="AE" unicode="&#xc6;" horiz-adv-x="896" 
d="M851 682v-88h-280v-205h271v-88h-271v-213h291v-88h-389v301h-191l-179 -301h-101l404 682h445zM471 622l-139 -233h141v233h-2z" />
    <glyph glyph-name="Oslash" unicode="&#xd8;" horiz-adv-x="823" 
d="M216 160l342 401q-70 40 -147 40q-114 0 -189.5 -73.5t-75.5 -186.5q0 -101 70 -181zM198 51l-47 -55l-47 33l49 57q-108 108 -108 255q0 154 107 253q104 97 259 97q121 0 209 -57l51 59l46 -40l-48 -56q109 -96 109 -256q0 -155 -108 -254q-104 -96 -261 -96
q-121 0 -211 60zM605 523l-344 -399q71 -43 150 -43q114 0 190 73t76 187q0 108 -72 182z" />
    <glyph glyph-name="yen" unicode="&#xa5;" horiz-adv-x="552" 
d="M233 0v159h-203v67h203v70h-203v73h167l-198 347h98l180 -322l173 322h103l-196 -347h165v-73h-200v-70h200v-67h-200v-159h-89z" />
    <glyph glyph-name="ordfeminine" unicode="&#xaa;" horiz-adv-x="281" 
d="M273 474v-42q-37 -23 -63 -23q-38 0 -47 23q-34 -23 -73 -23q-31 0 -53 19.5t-22 49.5q0 38 42 63q30 18 106 37q0 30 -7 42q-10 15 -38 15q-46 0 -98 -52v69q36 39 103 39q108 0 108 -89v-126q0 -22 5 -22q8 0 37 20zM163 471v72q-45 -15 -59 -24q-20 -13 -20 -32
q0 -34 35 -34q21 0 44 18z" />
    <glyph glyph-name="ordmasculine" unicode="&#xba;" horiz-adv-x="365" 
d="M342 550q0 -64 -49 -104q-45 -37 -111 -37q-65 0 -112 38.5t-47 102.5t48 104q46 37 111 37q66 0 111 -37q49 -40 49 -104zM273 550q0 40 -25 63.5t-65 23.5t-65.5 -23.5t-25.5 -63.5t25.5 -63.5t65.5 -23.5t65 23.5t25 63.5z" />
    <glyph glyph-name="ae" unicode="&#xe6;" horiz-adv-x="667" 
d="M629 128v-89q-66 -48 -151 -48q-108 0 -154 70q-86 -70 -172 -70q-51 0 -84 32t-33 83q0 71 83 114q39 20 144 48q8 110 -71 110q-80 0 -146 -77v107q59 50 145 50q87 0 134 -58q60 58 132 58q88 0 134 -66q41 -59 37 -149h-276q0 -71 33 -118q38 -54 106 -54
q63 0 139 57zM362 302h177q-10 76 -87 76q-64 0 -90 -76zM262 79v145q-61 -23 -83 -35q-53 -30 -53 -65q0 -28 17 -50t44 -22q29 0 75 27z" />
    <glyph glyph-name="oslash" unicode="&#xf8;" horiz-adv-x="552" 
d="M160 123l199 232q-40 23 -87 23q-64 0 -104.5 -42.5t-40.5 -106.5t33 -106zM138 29l-56 -66l-33 30l55 64q-68 68 -68 172q0 99 69 164t168 65q85 0 140 -39l47 54l33 -30l-44 -51q67 -67 67 -163q0 -107 -67.5 -172.5t-175.5 -65.5q-75 0 -135 38zM392 325l-199 -232
q35 -22 79 -22q72 0 112.5 42.5t40.5 114.5q0 57 -33 97z" />
    <glyph glyph-name="questiondown" unicode="&#xbf;" horiz-adv-x="333" 
d="M251 -97l-47 -96q-69 -1 -115 38t-46 107t42 140q26 40 76 122q39 65 33 109q59 -29 59 -92q0 -50 -56 -139t-56 -128q0 -30 18 -48.5t48 -18.5q11 0 44 6zM179 387q-25 0 -42.5 17.5t-17.5 42.5t17.5 42.5t42.5 17.5t42.5 -17.5t17.5 -42.5t-17.5 -42.5t-42.5 -17.5z
" />
    <glyph glyph-name="exclamdown" unicode="&#xa1;" horiz-adv-x="271" 
d="M136 -192q-56 0 -56 148q0 66 6 107l25 172q9 63 25 63t25 -63l25 -172q6 -41 6 -107q0 -148 -56 -148zM135 388q-25 0 -42.5 17.5t-17.5 42.5t17.5 42.5t42.5 17.5t42.5 -17.5t17.5 -42.5t-17.5 -42.5t-42.5 -17.5z" />
    <glyph glyph-name="florin" unicode="&#x192;" horiz-adv-x="552" 
d="M23 -198l17 76q48 -11 75 -11q48 0 58 59l90 524h-98l11 68h99l14 85q21 126 140 126q37 0 101 -19l-17 -75q-57 14 -78 14q-31 0 -46 -26q-8 -15 -15 -54l-9 -51h99l-12 -68h-100l-93 -533q-11 -66 -37 -94q-30 -33 -93 -33q-47 0 -106 12z" />
    <glyph glyph-name="guillemotleft" unicode="&#xab;" horiz-adv-x="490" 
d="M320 225l148 -225h-88l-147 225l147 225h88zM117 225l148 -225h-88l-147 225l147 225h88z" />
    <glyph glyph-name="guillemotright" unicode="&#xbb;" horiz-adv-x="490" 
d="M373 225l-148 225h88l147 -225l-147 -225h-88zM170 225l-148 225h88l147 -225l-147 -225h-88z" />
    <glyph glyph-name="ellipsis" unicode="&#x2026;" horiz-adv-x="1000" 
d="M166 111q25 0 42.5 -17.5t17.5 -42.5t-17.5 -42.5t-42.5 -17.5t-42.5 17.5t-17.5 42.5t17.5 42.5t42.5 17.5zM500 111q25 0 42.5 -17.5t17.5 -42.5t-17.5 -42.5t-42.5 -17.5t-42.5 17.5t-17.5 42.5t17.5 42.5t42.5 17.5zM834 111q25 0 42.5 -17.5t17.5 -42.5t-17.5 -42.5
t-42.5 -17.5t-42.5 17.5t-17.5 42.5t17.5 42.5t42.5 17.5z" />
    <glyph glyph-name="OE" unicode="&#x152;" horiz-adv-x="917" 
d="M875 682v-88h-279v-205h269v-88h-269v-213h290v-88h-444q-163 0 -274 87q-121 94 -121 253q0 160 115 254q108 88 271 88h442zM498 85v512h-57q-124 0 -205 -65q-88 -71 -88 -191q0 -114 85 -187q81 -69 197 -69h68z" />
    <glyph glyph-name="oe" unicode="&#x153;" horiz-adv-x="833" 
d="M798 129v-90q-76 -48 -162 -48q-112 0 -167 89q-72 -89 -195 -89q-96 0 -166 63q-73 65 -73 160q0 109 68 176.5t177 67.5q118 0 189 -93q55 93 161 93q84 0 130 -68q40 -60 36 -147h-280q-6 -71 30 -120q39 -52 109 -52q69 0 143 58zM525 302h183q-9 76 -83 76
q-76 0 -100 -76zM278 378q-67 0 -109.5 -46t-42.5 -114q0 -61 44 -104t105 -43q68 0 108 43.5t40 112.5q0 62 -41.5 106.5t-103.5 44.5z" />
    <glyph glyph-name="endash" unicode="&#x2013;" 
d="M509 285v-64h-518v64h518z" />
    <glyph glyph-name="emdash" unicode="&#x2014;" horiz-adv-x="1000" 
d="M1009 285v-64h-1018v64h1018z" />
    <glyph glyph-name="quotedblleft" unicode="&#x201c;" horiz-adv-x="427" 
d="M373 691v0v-19q-44 -37 -40 -107q53 -7 53 -59q0 -61 -60 -61q-33 0 -51 31q-16 27 -16 62q0 119 114 153zM155 691v0v-19q-44 -37 -40 -107q53 -7 53 -59q0 -61 -60 -61q-33 0 -51 31q-16 27 -16 62q0 119 114 153z" />
    <glyph glyph-name="quotedblright" unicode="&#x201d;" horiz-adv-x="427" 
d="M272 445v0v19q44 37 40 107q-53 7 -53 59q0 61 60 61q33 0 51 -31q16 -27 16 -62q0 -119 -114 -153zM54 445v0v19q44 37 40 107q-53 7 -53 59q0 61 60 61q33 0 51 -31q16 -27 16 -62q0 -119 -114 -153z" />
    <glyph glyph-name="quoteleft" unicode="&#x2018;" horiz-adv-x="219" 
d="M160 691v0v-19q-44 -37 -40 -107q53 -7 53 -59q0 -61 -60 -61q-33 0 -51 31q-16 27 -16 62q0 119 114 153z" />
    <glyph glyph-name="quoteright" unicode="&#x2019;" horiz-adv-x="219" 
d="M59 445v0v19q44 37 40 107q-53 7 -53 59q0 61 60 61q33 0 51 -31q16 -27 16 -62q0 -119 -114 -153z" />
    <glyph glyph-name="fraction" unicode="&#x2044;" horiz-adv-x="198" 
d="M360 691l-455 -718h-67l455 718h67z" />
    <glyph glyph-name="currency" unicode="&#xa4;" horiz-adv-x="552" 
d="M448 226l67 -67l-57 -57l-67 67q-51 -35 -115 -35q-63 0 -115 35l-67 -67l-57 57l67 67q-35 50 -35 115q0 63 35 115l-67 67l57 57l67 -67q49 35 115 35q62 0 115 -35l67 67l57 -57l-67 -67q35 -48 35 -115q0 -66 -35 -115zM276 468q-53 0 -90 -37t-37 -90
q0 -52 37.5 -89.5t89.5 -37.5q53 0 90 37t37 90t-37 90t-90 37z" />
    <glyph glyph-name="guilsinglleft" unicode="&#x2039;" horiz-adv-x="313" 
d="M123 225l148 -225h-88l-147 225l147 225h88z" />
    <glyph glyph-name="guilsinglright" unicode="&#x203a;" horiz-adv-x="313" 
d="M190 225l-148 225h88l147 -225l-147 -225h-88z" />
    <glyph glyph-name="fi" unicode="&#xf001;" 
d="M269 449v-75h-100v-374h-89v374h-67v75h67q-4 242 190 242q71 0 116 -36q50 -38 52 -107h-89q-23 63 -81 63q-109 0 -99 -162h100zM438 449v-449h-89v449h89z" />
    <glyph glyph-name="fl" unicode="&#xf002;" 
d="M303 682v-82q-13 11 -39 11q-97 0 -97 -116v-46h100v-75h-100v-374h-89v374h-69v75h69v33q0 85 39 143q45 66 126 66q28 0 60 -9zM436 682v-682h-89v682h89z" />
    <glyph glyph-name="daggerdbl" unicode="&#x2021;" horiz-adv-x="490" 
d="M244 691q49 0 49 -90q0 -40 -29 -165q80 28 131 28q68 0 68 -47q0 -22 -26 -34q-21 -9 -46 -9q-32 0 -127 25q0 -28 8 -83.5t8 -83.5q0 -29 -8 -85.5t-8 -85.5q65 26 128 26q26 0 45 -9q26 -12 26 -35q0 -46 -70 -46q-54 0 -129 28q29 -105 29 -163q0 -92 -48 -92t-48 89
q0 57 29 166q-80 -28 -132 -28q-67 0 -67 46q0 23 27 35q20 9 46 9q45 0 126 -25q-1 24 -9 86q-7 56 -7 86q0 28 8 82.5t8 82.5q-84 -25 -128 -25q-25 0 -45 9q-26 12 -26 34q0 47 71 47q24 0 66.5 -9.5t62.5 -19.5q-30 92 -30 173q0 83 47 83z" />
    <glyph glyph-name="periodcentered" horiz-adv-x="260" 
d="M130 405q25 0 42.5 -17.5t17.5 -42.5t-17.5 -42.5t-42.5 -17.5t-42.5 17.5t-17.5 42.5t17.5 42.5t42.5 17.5z" />
    <glyph glyph-name="quotesinglbase" unicode="&#x201a;" horiz-adv-x="219" 
d="M59 -115v0v19q44 37 40 107q-53 7 -53 59q0 61 60 61q33 0 51 -31q16 -27 16 -62q0 -119 -114 -153z" />
    <glyph glyph-name="quotedblbase" unicode="&#x201e;" horiz-adv-x="427" 
d="M283 -115v0v19q44 37 40 107q-53 7 -53 59q0 61 60 61q33 0 51 -31q16 -27 16 -62q0 -119 -114 -153zM64 -115v0v19q44 37 40 107q-53 7 -53 59q0 61 60 61q33 0 51 -31q16 -27 16 -62q0 -119 -114 -153z" />
    <glyph glyph-name="perthousand" unicode="&#x2030;" horiz-adv-x="1010" 
d="M845 222q-32 0 -55.5 -23.5t-23.5 -55.5q0 -33 23 -56t56 -23t56 23t23 56t-23 56t-56 23zM845 296q63 0 108 -45t45 -108t-45 -108t-108 -45q-64 0 -108.5 44.5t-44.5 108.5q0 63 45 108t108 45zM585 691l-449 -701h-75l449 701h75zM482 296q63 0 108 -45t45 -108
t-45 -108t-108 -45q-64 0 -108.5 44.5t-44.5 108.5q0 63 45 108t108 45zM482 222q-32 0 -55.5 -23.5t-23.5 -55.5q0 -33 23 -56t56 -23t56 23t23 56t-23 56t-56 23zM166 690q63 0 108 -45t45 -108t-45 -108t-108 -45q-64 0 -108.5 44.5t-44.5 108.5q0 63 45 108t108 45z
M166 616q-32 0 -55.5 -23.5t-23.5 -55.5q0 -33 23 -56t56 -23t56 23t23 56t-23 56t-56 23z" />
    <glyph glyph-name="dotlessi" unicode="&#x131;" horiz-adv-x="219" 
d="M154 449v-449h-89v449h89z" />
    <glyph glyph-name="circumflex" unicode="&#x2c6;" horiz-adv-x="333" 
d="M212 657l94 -151h-55l-87 87l-83 -87h-53l91 151h93z" />
    <glyph glyph-name="tilde" unicode="&#x2dc;" horiz-adv-x="333" 
d="M275 643v0h38q0 -45 -17 -77q-21 -41 -62 -41q-25 0 -70.5 17.5t-68.5 17.5q-29 0 -34 -35h-41q8 115 78 115q26 0 76 -17.5t65 -17.5q30 0 36 38z" />
    <glyph glyph-name="macron" unicode="&#xaf;" horiz-adv-x="333" 
d="M332 615v-73h-331v73h331z" />
    <glyph glyph-name="macron" unicode="&#x2c9;" horiz-adv-x="333" 
d="M332 615v-73h-331v73h331z" />
    <glyph glyph-name="breve" unicode="&#x2d8;" horiz-adv-x="333" 
d="M240 643h68q-23 -129 -140 -129q-120 0 -143 129h67q15 -62 77 -62q57 0 71 62z" />
    <glyph glyph-name="dotaccent" unicode="&#x2d9;" horiz-adv-x="333" 
d="M167 628q20 0 33 -13t13 -33t-13 -33.5t-33 -13.5q-19 0 -33 14t-14 33q0 20 13.5 33t33.5 13z" />
    <glyph glyph-name="ring" unicode="&#x2da;" horiz-adv-x="333" 
d="M167 691q38 0 65.5 -27.5t27.5 -65.5t-27.5 -65.5t-65.5 -27.5t-65.5 27.5t-27.5 65.5t27.5 65.5t65.5 27.5zM167 653q-23 0 -39 -16t-16 -39q0 -22 16.5 -38.5t38.5 -16.5q23 0 39 16t16 39t-16 39t-39 16z" />
    <glyph glyph-name="cedilla" unicode="&#xb8;" horiz-adv-x="333" 
d="M209 8l-7 -24q54 -15 54 -63q0 -92 -115 -92q-19 0 -40 3v55q15 -2 28 -2q56 0 56 28q0 31 -58 25l25 70h57z" />
    <glyph glyph-name="hungarumlaut" unicode="&#x2dd;" horiz-adv-x="333" 
d="M69 654h100l-112 -147h-55zM229 654h100l-112 -147h-55z" />
    <glyph glyph-name="ogonek" unicode="&#x2db;" horiz-adv-x="333" 
d="M266 -96v-67q-36 -15 -73 -15q-43 0 -72 26t-29 68q0 48 44 93h67q-35 -43 -35 -70q0 -20 15.5 -33t35.5 -13q7 0 47 11z" />
    <glyph glyph-name="caron" unicode="&#x2c7;" horiz-adv-x="333" 
d="M212 507h-93l-91 151h53l83 -87l87 87h55z" />
    <glyph glyph-name="Lslash" unicode="&#x141;" horiz-adv-x="490" 
d="M310 536v-88l-138 -114v-246h308v-88h-406v263l-89 -73v88l89 73v331h98v-260z" />
    <glyph glyph-name="lslash" unicode="&#x142;" horiz-adv-x="219" 
d="M233 482v-78l-79 -64v-340h-89v276l-79 -64v78l79 64v328h89v-264z" />
    <glyph glyph-name="Eth" unicode="&#xd0;" horiz-adv-x="750" 
d="M76 0v297h-80v88h80v297h265q151 0 255 -94q108 -97 108 -247t-107 -247q-103 -94 -255 -94h-266zM174 88h158q120 0 195.5 67t75.5 186q0 122 -79 189q-74 64 -199 64h-151v-209h193v-88h-193v-209z" />
    <glyph glyph-name="eth" unicode="&#xf0;" horiz-adv-x="563" 
d="M127 229q0 -69 38 -112q39 -46 107 -46q72 0 112.5 42.5t40.5 114.5q0 66 -43.5 108t-109.5 42q-64 0 -104.5 -42.5t-40.5 -106.5zM502 637l-103 -49q117 -133 117 -306q0 -131 -55 -206q-62 -85 -188 -85q-104 0 -170.5 67t-66.5 171q0 99 69 164t168 65q79 0 128 -42
l2 2q-25 65 -88 130l-133 -63l-28 53l113 53q-31 23 -67 40l61 59q48 -21 92 -58l121 58z" />
    <glyph glyph-name="Scaron" unicode="&#x160;" horiz-adv-x="458" 
d="M399 643v-111q-75 71 -160 71q-42 0 -72 -19q-36 -22 -36 -62q0 -53 76 -100l143 -89q76 -64 76 -157q0 -82 -54.5 -133.5t-136.5 -51.5q-107 0 -191 63v124q77 -99 180 -99q42 0 74 21q37 25 37 65q0 58 -76 110q-40 27 -143 93q-76 62 -76 141q0 87 61 137
q56 45 146 45q80 0 152 -48zM275 727h-93l-91 151h53l83 -87l87 87h55z" />
    <glyph glyph-name="scaron" unicode="&#x161;" horiz-adv-x="385" 
d="M324 421v-88q-71 47 -130 47t-59 -41q0 -22 109 -90q101 -63 101 -126q0 -61 -43 -96.5t-105 -35.5q-77 0 -156 41v96q88 -61 147 -59q66 2 66 51q0 25 -54 57q-92 55 -102 63q-54 44 -54 96q0 61 45 93q40 29 103 29q62 0 132 -37zM238 507h-93l-91 151h53l83 -87l87 87
h55z" />
    <glyph glyph-name="Yacute" unicode="&#xdd;" horiz-adv-x="604" 
d="M301 447l185 235h118l-253 -322v-360h-98v361l-253 321h118zM443 789q-23 -23 -39 -35l-69 -52q-27 -20 -32 -14q-6 5 14 31l52 70q15 20 35 39q51 5 51 -18q0 -9 -12 -21z" />
    <glyph glyph-name="yacute" unicode="&#xfd;" horiz-adv-x="438" 
d="M438 449l-318 -679h-99l153 326l-174 353h101l121 -253l116 253h100zM313 519l-62 -47q-24 -18 -28 -12q-6 3 12 27l47 63q15 20 31 35q47 5 47 -16q0 -14 -47 -50z" />
    <glyph glyph-name="Thorn" unicode="&#xde;" horiz-adv-x="510" 
d="M70 682h98v-148h115q97 0 155 -49q62 -52 62 -147q0 -96 -69 -147q-61 -44 -161 -44h-102v-147h-98v682zM168 446v-211h111q53 0 86.5 27.5t33.5 79.5q0 51 -31.5 77.5t-84.5 26.5h-115z" />
    <glyph glyph-name="thorn" unicode="&#xfe;" 
d="M146 11v-241h-89v912h89v-233h65q118 0 183 -54q70 -58 70 -174q0 -101 -63.5 -165.5t-164.5 -64.5q-41 0 -90 20zM146 369v-278q42 -20 84 -20q63 0 103 43.5t40 107.5q0 147 -146 147h-81z" />
    <glyph glyph-name="Zcaron" unicode="&#x17d;" horiz-adv-x="646" 
d="M450 594h-407v88h588l-434 -594h434v-88h-615zM369 727h-93l-91 151h53l83 -87l87 87h55z" />
    <glyph glyph-name="zcaron" unicode="&#x17e;" horiz-adv-x="417" 
d="M404 449l-239 -369h240v-80h-394l238 369h-228v80h383zM254 507h-93l-91 151h53l83 -87l87 87h55z" />
    <glyph glyph-name="onehalf" unicode="&#xbd;" horiz-adv-x="844" 
d="M732 54v-54h-267v7q89 91 124 138q44 59 44 98q0 28 -18 44t-46 16q-56 0 -95 -58v78q49 36 100 36q54 0 91.5 -30t37.5 -82q0 -73 -122 -193h151zM605 691l-455 -718h-67l455 718h67zM195 687v-355h-69v355h69z" />
    <glyph glyph-name="onequarter" unicode="&#xbc;" horiz-adv-x="844" 
d="M635 360v-196h45v-49h-45v-115h-68v115h-170v25l205 220h33zM567 248l-78 -84h78v84zM195 687v-355h-69v355h69zM605 691l-455 -718h-67l455 718h67z" />
    <glyph glyph-name="onesuperior" unicode="&#xb9;" horiz-adv-x="323" 
d="M196 687v-355h-69v355h69z" />
    <glyph glyph-name="threequarters" unicode="&#xbe;" horiz-adv-x="844" 
d="M653 691l-455 -718h-67l455 718h67zM75 619v55q38 17 83 17q50 0 84 -21q40 -26 40 -73q0 -54 -47 -78q54 -20 54 -83q0 -52 -42 -82q-37 -27 -91 -27q-44 0 -91 22v63q50 -29 94 -29q58 0 58 51q0 58 -84 55v52q10 -1 19 -1q62 0 62 49q0 50 -64 50q-30 0 -75 -20z
M683 360v-196h45v-49h-45v-115h-68v115h-170v25l205 220h33zM615 248l-78 -84h78v84z" />
    <glyph glyph-name="threesuperior" unicode="&#xb3;" horiz-adv-x="323" 
d="M56 619v55q38 17 83 17q50 0 84 -21q40 -26 40 -73q0 -54 -47 -78q54 -20 54 -83q0 -52 -42 -82q-37 -27 -91 -27q-44 0 -91 22v63q50 -29 94 -29q58 0 58 51q0 58 -84 55v52q10 -1 19 -1q62 0 62 49q0 50 -64 50q-30 0 -75 -20z" />
    <glyph glyph-name="twosuperior" unicode="&#xb2;" horiz-adv-x="323" 
d="M295 386v-54h-267v7q89 91 124 138q44 59 44 98q0 28 -18 44t-46 16q-56 0 -95 -58v78q49 36 100 36q54 0 91.5 -30t37.5 -82q0 -73 -122 -193h151z" />
    <glyph glyph-name="brokenbar" unicode="&#xa6;" horiz-adv-x="260" 
d="M92 -175v350h76v-350h-76zM92 325v350h76v-350h-76z" />
    <glyph glyph-name="minus" unicode="&#x2212;" horiz-adv-x="584" 
d="M56 394h472v-82h-472v82z" />
    <glyph glyph-name="multiply" unicode="&#xd7;" horiz-adv-x="584" 
d="M79 200l154 154l-154 154l59 59l154 -154l153 153l59 -59l-153 -153l153 -153l-59 -59l-153 153l-154 -154z" />
    <glyph glyph-name="Adieresis" unicode="&#xc4;" horiz-adv-x="667" 
d="M362 686l305 -686h-100l-91 201h-290l-86 -201h-100l293 686h69zM326 536l-102 -247h212zM241 848q20 0 33 -13t13 -33t-13 -33.5t-33 -13.5q-19 0 -33 14t-14 33q0 20 13.5 33t33.5 13zM427 848q20 0 33 -13t13 -33t-13 -33.5t-33 -13.5q-19 0 -33 14t-14 33
q0 20 13.5 33t33.5 13z" />
    <glyph glyph-name="Aring" unicode="&#xc5;" horiz-adv-x="667" 
d="M362 686l305 -686h-100l-91 201h-290l-86 -201h-100l293 686h69zM326 536l-102 -247h212zM334 911q38 0 65.5 -27.5t27.5 -65.5t-27.5 -65.5t-65.5 -27.5t-65.5 27.5t-27.5 65.5t27.5 65.5t65.5 27.5zM334 873q-23 0 -39 -16t-16 -39q0 -22 16.5 -38.5t38.5 -16.5
q23 0 39 16t16 39t-16 39t-39 16z" />
    <glyph glyph-name="Ccedilla" unicode="&#xc7;" horiz-adv-x="708" 
d="M663 158v-107q-115 -60 -267 -60l-4 -14q54 -15 54 -63q0 -92 -115 -92q-19 0 -40 3v55q15 -2 28 -2q56 0 56 28q0 31 -58 25l24 67q-142 24 -223 131q-70 92 -70 202q0 160 108 261q105 99 266 99q100 0 234 -56v-105q-122 71 -235 71q-115 0 -193.5 -73t-78.5 -188
q0 -119 78 -189t198 -70q119 0 238 77z" />
    <glyph glyph-name="Eacute" unicode="&#xc9;" 
d="M462 682v-88h-289v-206h279v-88h-279v-212h298v-88h-396v682h387zM411 825q-23 -23 -39 -35l-69 -52q-27 -20 -32 -14q-6 5 14 31l52 70q15 20 35 39q51 5 51 -18q0 -9 -12 -21z" />
    <glyph glyph-name="Ntilde" unicode="&#xd1;" horiz-adv-x="781" 
d="M706 682v-682h-84l-456 525v-525h-92v682h78l462 -528v528h92zM499 863v0h38q0 -45 -17 -77q-21 -41 -62 -41q-25 0 -70.5 17.5t-68.5 17.5q-29 0 -34 -35h-41q8 115 78 115q26 0 76 -17.5t65 -17.5q30 0 36 38z" />
    <glyph glyph-name="Odieresis" unicode="&#xd6;" horiz-adv-x="823" 
d="M45 341q0 154 107 253q104 97 259 97q157 0 261 -96q106 -99 106 -254t-108 -254q-104 -96 -261 -96q-154 0 -259 98.5t-105 251.5zM146 341q0 -113 75.5 -186.5t189.5 -73.5t190 73t76 187t-76 187t-190 73t-189.5 -73.5t-75.5 -186.5zM319 848q20 0 33 -13t13 -33
t-13 -33.5t-33 -13.5q-19 0 -33 14t-14 33q0 20 13.5 33t33.5 13zM505 848q20 0 33 -13t13 -33t-13 -33.5t-33 -13.5q-19 0 -33 14t-14 33q0 20 13.5 33t33.5 13z" />
    <glyph glyph-name="Udieresis" unicode="&#xdc;" horiz-adv-x="708" 
d="M648 682v-414q0 -137 -84 -209q-79 -68 -219 -68q-126 0 -203 70q-81 72 -81 197v424h98v-403q0 -99 41 -140q58 -58 147 -58q105 0 160 55q43 43 43 149v397h98zM262 848q20 0 33 -13t13 -33t-13 -33.5t-33 -13.5q-19 0 -33 14t-14 33q0 20 13.5 33t33.5 13zM448 848
q20 0 33 -13t13 -33t-13 -33.5t-33 -13.5q-19 0 -33 14t-14 33q0 20 13.5 33t33.5 13z" />
    <glyph glyph-name="aacute" unicode="&#xe1;" horiz-adv-x="427" 
d="M411 80v-54q-53 -35 -86 -35q-56 0 -68 46q-58 -46 -121 -46q-47 0 -78.5 31.5t-31.5 78.5q0 60 49 95q28 20 104 47l79 28v24q0 79 -81 79q-80 0 -142 -74v97q52 61 149 61q74 0 118.5 -38t44.5 -110v-231q0 -23 17 -23q15 0 47 24zM258 91v131q-70 -24 -99 -42
q-43 -27 -43 -63q0 -28 18 -45.5t46 -17.5q39 0 78 37zM274 557l-62 -47q-24 -18 -28 -12q-6 3 12 27l47 63q15 20 31 35q47 5 47 -16q0 -14 -47 -50z" />
    <glyph glyph-name="agrave" unicode="&#xe0;" horiz-adv-x="427" 
d="M411 80v-54q-53 -35 -86 -35q-56 0 -68 46q-58 -46 -121 -46q-47 0 -78.5 31.5t-31.5 78.5q0 60 49 95q28 20 104 47l79 28v24q0 79 -81 79q-80 0 -142 -74v97q52 61 149 61q74 0 118.5 -38t44.5 -110v-231q0 -23 17 -23q15 0 47 24zM258 91v131q-70 -24 -99 -42
q-43 -27 -43 -63q0 -28 18 -45.5t46 -17.5q39 0 78 37zM184 498q-4 -6 -28 12l-63 47q-16 12 -35 31q-11 11 -11 19q0 21 46 16q17 -14 32 -35l47 -63q18 -24 12 -27z" />
    <glyph glyph-name="acircumflex" unicode="&#xe2;" horiz-adv-x="427" 
d="M411 80v-54q-53 -35 -86 -35q-56 0 -68 46q-58 -46 -121 -46q-47 0 -78.5 31.5t-31.5 78.5q0 60 49 95q28 20 104 47l79 28v24q0 79 -81 79q-80 0 -142 -74v97q52 61 149 61q74 0 118.5 -38t44.5 -110v-231q0 -23 17 -23q15 0 47 24zM258 91v131q-70 -24 -99 -42
q-43 -27 -43 -63q0 -28 18 -45.5t46 -17.5q39 0 78 37zM184 525l-103 -67v60l103 48l103 -48v-60z" />
    <glyph glyph-name="adieresis" unicode="&#xe4;" horiz-adv-x="427" 
d="M411 80v-54q-53 -35 -86 -35q-56 0 -68 46q-58 -46 -121 -46q-47 0 -78.5 31.5t-31.5 78.5q0 60 49 95q28 20 104 47l79 28v24q0 79 -81 79q-80 0 -142 -74v97q52 61 149 61q74 0 118.5 -38t44.5 -110v-231q0 -23 17 -23q15 0 47 24zM258 91v131q-70 -24 -99 -42
q-43 -27 -43 -63q0 -28 18 -45.5t46 -17.5q39 0 78 37zM101 628q20 0 33 -13t13 -33t-13 -33.5t-33 -13.5q-19 0 -33 14t-14 33q0 20 13.5 33t33.5 13zM287 628q20 0 33 -13t13 -33t-13 -33.5t-33 -13.5q-19 0 -33 14t-14 33q0 20 13.5 33t33.5 13z" />
    <glyph glyph-name="atilde" unicode="&#xe3;" horiz-adv-x="427" 
d="M411 80v-54q-53 -35 -86 -35q-56 0 -68 46q-58 -46 -121 -46q-47 0 -78.5 31.5t-31.5 78.5q0 60 49 95q28 20 104 47l79 28v24q0 79 -81 79q-80 0 -142 -74v97q52 61 149 61q74 0 118.5 -38t44.5 -110v-231q0 -23 17 -23q15 0 47 24zM258 91v131q-70 -24 -99 -42
q-43 -27 -43 -63q0 -28 18 -45.5t46 -17.5q39 0 78 37zM69 494l-20 28q10 10 37 38q23 24 39 24q13 0 63 -19q36 -19 60 -19q13 0 25 13q19 21 25 24l20 -25q-55 -62 -73 -62q-27 0 -63 19q-50 19 -61 19q-14 0 -29 -15q-11 -12 -23 -25z" />
    <glyph glyph-name="aring" unicode="&#xe5;" horiz-adv-x="427" 
d="M411 80v-54q-53 -35 -86 -35q-56 0 -68 46q-58 -46 -121 -46q-47 0 -78.5 31.5t-31.5 78.5q0 60 49 95q28 20 104 47l79 28v24q0 79 -81 79q-80 0 -142 -74v97q52 61 149 61q74 0 118.5 -38t44.5 -110v-231q0 -23 17 -23q15 0 47 24zM258 91v131q-70 -24 -99 -42
q-43 -27 -43 -63q0 -28 18 -45.5t46 -17.5q39 0 78 37zM194 691q38 0 65.5 -27.5t27.5 -65.5t-27.5 -65.5t-65.5 -27.5t-65.5 27.5t-27.5 65.5t27.5 65.5t65.5 27.5zM194 653q-23 0 -39 -16t-16 -39q0 -22 16.5 -38.5t38.5 -16.5q23 0 39 16t16 39t-16 39t-39 16z" />
    <glyph glyph-name="ccedilla" unicode="&#xe7;" horiz-adv-x="438" 
d="M403 105v-88q-56 -26 -142 -26l-4 -14q54 -15 54 -63q0 -92 -115 -92q-19 0 -40 3v55q15 -2 28 -2q56 0 56 28q0 31 -58 25l24 68q-77 18 -121 77.5t-44 139.5q0 108 57 173q59 69 165 69q60 0 130 -31v-95q-66 44 -124 44q-64 0 -100.5 -43.5t-36.5 -108.5
q0 -70 41 -109.5t111 -39.5q52 0 119 30z" />
    <glyph glyph-name="eacute" unicode="&#xe9;" horiz-adv-x="479" 
d="M438 130v-86q-79 -53 -179 -53q-99 0 -160 71q-58 67 -58 168q0 99 56.5 163.5t153.5 64.5q103 0 153 -75q42 -63 42 -172h-316q21 -135 151 -135q74 0 157 54zM132 270h226q-2 50 -29 80.5t-76 30.5q-102 0 -121 -111zM341 557l-62 -47q-24 -18 -28 -12q-6 3 12 27
l47 63q15 20 31 35q47 5 47 -16q0 -14 -47 -50z" />
    <glyph glyph-name="egrave" unicode="&#xe8;" horiz-adv-x="479" 
d="M438 130v-86q-79 -53 -179 -53q-99 0 -160 71q-58 67 -58 168q0 99 56.5 163.5t153.5 64.5q103 0 153 -75q42 -63 42 -172h-316q21 -135 151 -135q74 0 157 54zM132 270h226q-2 50 -29 80.5t-76 30.5q-102 0 -121 -111zM252 498q-4 -6 -28 12l-63 47q-16 12 -35 31
q-11 11 -11 19q0 21 46 16q17 -14 32 -35l47 -63q18 -24 12 -27z" />
    <glyph glyph-name="ecircumflex" unicode="&#xea;" horiz-adv-x="479" 
d="M438 130v-86q-79 -53 -179 -53q-99 0 -160 71q-58 67 -58 168q0 99 56.5 163.5t153.5 64.5q103 0 153 -75q42 -63 42 -172h-316q21 -135 151 -135q74 0 157 54zM132 270h226q-2 50 -29 80.5t-76 30.5q-102 0 -121 -111zM251 526l-103 -67v60l103 48l103 -48v-60z" />
    <glyph glyph-name="edieresis" unicode="&#xeb;" horiz-adv-x="479" 
d="M438 130v-86q-79 -53 -179 -53q-99 0 -160 71q-58 68 -58 168q0 98 56.5 163t153.5 65q102 0 153 -75q42 -64 42 -172h-316q21 -135 151 -135q74 0 157 54zM132 270h226q-2 50 -29 80.5t-76 30.5q-102 0 -121 -111zM147 628q20 0 33 -13t13 -33t-13 -33.5t-33 -13.5
q-19 0 -33 14t-14 33q0 20 13.5 33t33.5 13zM333 628q20 0 33 -13t13 -33t-13 -33.5t-33 -13.5q-19 0 -33 14t-14 33q0 20 13.5 33t33.5 13z" />
    <glyph glyph-name="iacute" unicode="&#xed;" horiz-adv-x="219" 
d="M154 449v-449h-89v449h89zM201 550l-62 -47q-25 -19 -29 -12q-5 3 13 27l47 63q15 20 31 35q47 5 47 -16q0 -14 -47 -50z" />
    <glyph glyph-name="igrave" unicode="&#xec;" horiz-adv-x="219" 
d="M154 449v-449h-89v449h89zM110 491q-4 -6 -28 12l-63 47q-16 12 -35 31q-11 11 -11 19q0 21 46 16q17 -14 32 -35l47 -63q18 -24 12 -27z" />
    <glyph glyph-name="icircumflex" unicode="&#xee;" horiz-adv-x="219" 
d="M154 449v-449h-89v449h89zM155 657l94 -151h-55l-87 87l-83 -87h-53l91 151h93z" />
    <glyph glyph-name="idieresis" unicode="&#xef;" horiz-adv-x="219" 
d="M154 449v-449h-89v449h89zM17 628q20 0 33 -13t13 -33t-13 -33.5t-33 -13.5q-19 0 -33 14t-14 33q0 20 13.5 33t33.5 13zM203 628q20 0 33 -13t13 -33t-13 -33.5t-33 -13.5q-19 0 -33 14t-14 33q0 20 13.5 33t33.5 13z" />
    <glyph glyph-name="ntilde" unicode="&#xf1;" 
d="M150 449v-59h2q54 68 134 68q76 0 116 -54q37 -48 37 -127v-277h-89v278q0 46 -21 75q-23 34 -67 34q-54 0 -112 -65v-322h-89v449h89zM359 643v0h38q0 -45 -17 -77q-21 -41 -62 -41q-25 0 -70.5 17.5t-68.5 17.5q-29 0 -34 -35h-41q8 115 78 115q26 0 76 -17.5t65 -17.5
q30 0 36 38z" />
    <glyph glyph-name="oacute" unicode="&#xf3;" horiz-adv-x="552" 
d="M273 458q105 0 174 -63t69 -166q0 -108 -67.5 -173t-175.5 -65q-104 0 -170.5 66.5t-66.5 171.5q0 99 68.5 164t168.5 65zM272 378q-64 0 -104.5 -42.5t-40.5 -106.5q0 -68 39 -113t106 -45q72 0 112.5 42.5t40.5 114.5q0 66 -43.5 108t-109.5 42zM364 557l-62 -47
q-24 -18 -28 -12q-6 3 12 27l47 63q15 20 31 35q47 5 47 -16q0 -14 -47 -50z" />
    <glyph glyph-name="ograve" unicode="&#xf2;" horiz-adv-x="552" 
d="M273 458q105 0 174 -63t69 -166q0 -108 -67.5 -173t-175.5 -65q-104 0 -170.5 66.5t-66.5 171.5q0 99 68.5 164t168.5 65zM272 378q-64 0 -104.5 -42.5t-40.5 -106.5q0 -68 39 -113t106 -45q72 0 112.5 42.5t40.5 114.5q0 66 -43.5 108t-109.5 42zM274 498q-4 -6 -28 12
l-63 47q-16 12 -35 31q-11 11 -11 19q0 21 46 16q17 -14 32 -35l47 -63q18 -24 12 -27z" />
    <glyph glyph-name="ocircumflex" unicode="&#xf4;" horiz-adv-x="552" 
d="M273 458q105 0 174 -63t69 -166q0 -108 -67.5 -173t-175.5 -65q-104 0 -170.5 66.5t-66.5 171.5q0 99 68.5 164t168.5 65zM272 378q-64 0 -104.5 -42.5t-40.5 -106.5q0 -68 39 -113t106 -45q72 0 112.5 42.5t40.5 114.5q0 66 -43.5 108t-109.5 42zM273 525l-103 -67v60
l103 48l103 -48v-60z" />
    <glyph glyph-name="odieresis" unicode="&#xf6;" horiz-adv-x="552" 
d="M273 458q104 0 173.5 -63t69.5 -166q0 -107 -67.5 -172.5t-175.5 -65.5q-104 0 -170.5 67t-66.5 171q0 99 69 164t168 65zM272 378q-64 0 -104.5 -42.5t-40.5 -106.5q0 -69 38 -112q39 -46 107 -46q72 0 112.5 42.5t40.5 114.5q0 66 -43.5 108t-109.5 42zM184 628
q20 0 33 -13t13 -33t-13 -33.5t-33 -13.5q-19 0 -33 14t-14 33q0 20 13.5 33t33.5 13zM370 628q20 0 33 -13t13 -33t-13 -33.5t-33 -13.5q-19 0 -33 14t-14 33q0 20 13.5 33t33.5 13z" />
    <glyph glyph-name="otilde" unicode="&#xf5;" horiz-adv-x="552" 
d="M273 458q105 0 174 -63t69 -166q0 -108 -67.5 -173t-175.5 -65q-104 0 -170.5 66.5t-66.5 171.5q0 99 68.5 164t168.5 65zM272 378q-64 0 -104.5 -42.5t-40.5 -106.5q0 -68 39 -113t106 -45q72 0 112.5 42.5t40.5 114.5q0 66 -43.5 108t-109.5 42zM158 494l-20 28
q10 10 37 38q23 24 39 24q13 0 63 -19q36 -19 60 -19q13 0 25 13q19 21 25 24l20 -25q-55 -62 -73 -62q-27 0 -63 19q-50 19 -61 19q-14 0 -29 -15q-11 -12 -23 -25z" />
    <glyph glyph-name="uacute" unicode="&#xfa;" 
d="M437 0h-89v57q-61 -66 -133 -66q-76 0 -117 53q-38 48 -38 126v279h89v-285q0 -99 92 -99q62 0 107 63v321h89v-449zM338 519l-62 -47q-24 -18 -28 -12q-6 3 12 27l47 63q15 20 31 35q47 5 47 -16q0 -14 -47 -50z" />
    <glyph glyph-name="ugrave" unicode="&#xf9;" 
d="M437 0h-89v57q-61 -66 -133 -66q-76 0 -117 53q-38 48 -38 126v279h89v-285q0 -99 92 -99q62 0 107 63v321h89v-449zM250 460q-4 -6 -28 12l-63 47q-16 12 -35 31q-11 11 -11 19q0 21 46 16q17 -14 32 -35l47 -63q18 -24 12 -27z" />
    <glyph glyph-name="ucircumflex" unicode="&#xfb;" 
d="M437 0h-89v57q-61 -66 -133 -66q-76 0 -117 53q-38 48 -38 126v279h89v-285q0 -99 92 -99q62 0 107 63v321h89v-449zM296 657l94 -151h-55l-87 87l-83 -87h-53l91 151h93z" />
    <glyph glyph-name="udieresis" unicode="&#xfc;" 
d="M437 0h-89v57q-61 -66 -133 -66q-76 0 -117 53q-38 48 -38 126v279h89v-285q0 -99 92 -99q62 0 107 63v321h89v-449zM158 628q20 0 33 -13t13 -33t-13 -33.5t-33 -13.5q-19 0 -33 14t-14 33q0 20 13.5 33t33.5 13zM344 628q20 0 33 -13t13 -33t-13 -33.5t-33 -13.5
q-19 0 -33 14t-14 33q0 20 13.5 33t33.5 13z" />
    <glyph glyph-name="degree" unicode="&#xb0;" horiz-adv-x="396" 
d="M197 675q-35 0 -58.5 -23.5t-23.5 -58.5t23.5 -59t58.5 -24t59 24t24 59t-24 58.5t-59 23.5zM197 728q56 0 95.5 -39.5t39.5 -95.5t-39.5 -95.5t-95.5 -39.5t-95.5 39.5t-39.5 95.5t39.5 95.5t95.5 39.5z" />
    <glyph glyph-name="registered" unicode="&#xae;" horiz-adv-x="740" 
d="M208 156v396h175q52 0 89 -25q42 -29 42 -79q0 -49 -32 -80t-81 -34v-2q39 -14 92 -99l48 -77h-78l-35 62q-32 57 -45 72q-30 34 -73 34h-38v-168h-64zM272 379h92q82 0 82 60q0 29 -20.5 44t-50.5 15h-103v-119zM677 360q0 128 -90 217.5t-218 89.5t-217.5 -89.5
t-89.5 -217.5t89.5 -218t217.5 -90t218 90t90 218zM738 360q0 -154 -107.5 -261.5t-261.5 -107.5t-261 107.5t-107 261.5t107 261t261 107t261.5 -107t107.5 -261z" />
    <glyph glyph-name="copyright" unicode="&#xa9;" horiz-adv-x="740" 
d="M488 300l60 -18q-15 -66 -64 -99.5t-118 -33.5q-92 0 -143 63q-46 58 -46 153q0 90 53.5 145.5t143.5 55.5q133 0 167 -115l-58 -14q-30 75 -114 75q-62 0 -96 -49q-29 -43 -29 -108t30 -105q33 -44 96 -44q44 0 76 25.5t42 68.5zM738 360q0 -154 -107.5 -261.5
t-261.5 -107.5t-261 107.5t-107 261.5t107 261t261 107t261.5 -107t107.5 -261zM677 360q0 128 -90 217.5t-218 89.5t-217.5 -89.5t-89.5 -217.5t89.5 -218t217.5 -90t218 90t90 218z" />
    <glyph glyph-name="trademark" unicode="&#x2122;" horiz-adv-x="1000" 
d="M239 318v339h-129v59h325v-59h-130v-339h-66zM480 318v398h98l99 -318h2l96 318h96v-398h-61v334h-2l-100 -334h-60l-105 339h-2v-339h-61z" />
    <glyph glyph-name="plusminus" unicode="&#xb1;" horiz-adv-x="584" 
d="M56 82h472v-82h-472v82zM251 589h82v-195h195v-82h-195v-195h-82v195h-195v82h195v195z" />
    <glyph glyph-name="mu" unicode="&#xb5;" horiz-adv-x="552" 
d="M469 449v-449h-82v53h-2q-35 -62 -105 -62q-65 0 -102 54h-2v-217h-89v621h89v-248q0 -58 20 -96q26 -47 79 -47q105 0 105 141v250h89z" />
    <glyph glyph-name="mu" unicode="&#x3bc;" horiz-adv-x="552" 
d="M469 449v-449h-82v53h-2q-35 -62 -105 -62q-65 0 -102 54h-2v-217h-89v621h89v-248q0 -58 20 -96q26 -47 79 -47q105 0 105 141v250h89z" />
    <glyph glyph-name="logicalnot" unicode="&#xac;" horiz-adv-x="584" 
d="M528 126h-82v213h-391v82h473v-295z" />
    <glyph glyph-name="Agrave" unicode="&#xc0;" horiz-adv-x="667" 
d="M326 729q-5 -6 -32 14l-69 52q-19 14 -39 35q-12 12 -12 21q0 23 51 18q20 -19 35 -39l52 -70q20 -26 14 -31zM667 0h-100l-91 201h-290l-86 -201h-100l293 686h69zM436 289l-110 247l-102 -247h212z" />
    <glyph glyph-name="Atilde" unicode="&#xc3;" horiz-adv-x="667" 
d="M667 0h-100l-91 201h-290l-86 -201h-100l293 686h69zM436 289l-110 247l-102 -247h212zM210 725l-20 28q10 10 37 38q23 24 39 24q13 0 63 -19q36 -19 60 -19q13 0 25 13q19 21 25 24l20 -25q-55 -62 -73 -62q-27 0 -63 19q-50 19 -61 19q-14 0 -29 -15q-11 -12 -23 -25z
" />
    <glyph glyph-name="Otilde" unicode="&#xd5;" horiz-adv-x="823" 
d="M45 341q0 154 107 253q104 97 259 97q158 0 261 -95q106 -98 106 -255q0 -156 -108 -254q-104 -96 -261 -96q-155 0 -258 97q-106 99 -106 253zM146 341q0 -114 75.5 -187t189.5 -73q115 0 190.5 73t75.5 187t-75.5 187t-190.5 73q-114 0 -189.5 -73t-75.5 -187zM296 733
l-20 28q10 10 37 38q23 24 39 24q13 0 63 -19q36 -19 60 -19q13 0 25 13q19 21 25 24l20 -25q-55 -62 -73 -62q-27 0 -63 19q-50 19 -61 19q-14 0 -29 -15q-11 -12 -23 -25z" />
    <glyph glyph-name="divide" unicode="&#xf7;" horiz-adv-x="584" 
d="M56 394h472v-82h-472v82zM292 259q22 0 37.5 -15.5t15.5 -37.5t-15.5 -37.5t-37.5 -15.5t-37.5 15.5t-15.5 37.5t15.5 37.5t37.5 15.5zM292 553q22 0 37.5 -15.5t15.5 -37.5t-15.5 -37.5t-37.5 -15.5t-37.5 15.5t-15.5 37.5t15.5 37.5t37.5 15.5z" />
    <glyph glyph-name="ydieresis" unicode="&#xff;" horiz-adv-x="438" 
d="M438 449l-318 -679h-99l153 326l-174 353h101l121 -253l116 253h100zM127 628q20 0 33 -13t13 -33t-13 -33.5t-33 -13.5q-19 0 -33 14t-14 33q0 20 13.5 33t33.5 13zM313 628q20 0 33 -13t13 -33t-13 -33.5t-33 -13.5q-19 0 -33 14t-14 33q0 20 13.5 33t33.5 13z" />
    <glyph glyph-name="Ydieresis" unicode="&#x178;" horiz-adv-x="604" 
d="M301 447l185 235h118l-253 -322v-360h-98v361l-253 321h118zM210 848q20 0 33 -13t13 -33t-13 -33.5t-33 -13.5q-19 0 -33 14t-14 33q0 20 13.5 33t33.5 13zM396 848q20 0 33 -13t13 -33t-13 -33.5t-33 -13.5q-19 0 -33 14t-14 33q0 20 13.5 33t33.5 13z" />
    <glyph glyph-name="Acircumflex" unicode="&#xc2;" horiz-adv-x="667" 
d="M362 686l305 -686h-100l-91 201h-290l-86 -201h-100l293 686h69zM326 536l-102 -247h212zM325 761l-114 -74v66l114 54l114 -54v-66z" />
    <glyph glyph-name="Ecircumflex" unicode="&#xca;" 
d="M462 682v-88h-289v-206h279v-88h-279v-212h298v-88h-396v682h387zM270 776l-114 -74v66l114 54l114 -54v-66z" />
    <glyph glyph-name="Aacute" unicode="&#xc1;" horiz-adv-x="667" 
d="M362 686l305 -686h-100l-91 201h-290l-86 -201h-100l293 686h69zM326 536l-102 -247h212zM466 830q-23 -23 -39 -35l-69 -52q-27 -20 -32 -14q-6 5 14 31l52 70q15 20 35 39q51 5 51 -18q0 -9 -12 -21z" />
    <glyph glyph-name="Edieresis" unicode="&#xcb;" 
d="M462 682v-88h-289v-206h279v-88h-279v-212h298v-88h-396v682h387zM158 848q20 0 33 -13t13 -33t-13 -33.5t-33 -13.5q-19 0 -33 14t-14 33q0 20 13.5 33t33.5 13zM344 848q20 0 33 -13t13 -33t-13 -33.5t-33 -13.5q-19 0 -33 14t-14 33q0 20 13.5 33t33.5 13z" />
    <glyph glyph-name="Egrave" unicode="&#xc8;" 
d="M462 682v-88h-289v-206h279v-88h-279v-212h298v-88h-396v682h387zM268 724q-5 -6 -32 14l-69 52q-19 14 -39 35q-12 12 -12 21q0 23 51 18q20 -19 35 -39l52 -70q20 -26 14 -31z" />
    <glyph glyph-name="Iacute" unicode="&#xcd;" horiz-adv-x="250" 
d="M174 682v-682h-98v682h98zM265 825q-23 -23 -39 -35l-69 -52q-27 -20 -32 -14q-6 5 14 31l52 70q15 20 35 39q51 5 51 -18q0 -9 -12 -21z" />
    <glyph glyph-name="Icircumflex" unicode="&#xce;" horiz-adv-x="250" 
d="M174 682v-682h-98v682h98zM171 877l94 -151h-55l-87 87l-83 -87h-53l91 151h93z" />
    <glyph glyph-name="Idieresis" unicode="&#xcf;" horiz-adv-x="250" 
d="M174 682v-682h-98v682h98zM33 848q20 0 33 -13t13 -33t-13 -33.5t-33 -13.5q-19 0 -33 14t-14 33q0 20 13.5 33t33.5 13zM219 848q20 0 33 -13t13 -33t-13 -33.5t-33 -13.5q-19 0 -33 14t-14 33q0 20 13.5 33t33.5 13z" />
    <glyph glyph-name="Igrave" unicode="&#xcc;" horiz-adv-x="250" 
d="M174 682v-682h-98v682h98zM123 724q-5 -6 -32 14l-69 52q-19 14 -39 35q-12 12 -12 21q0 23 51 18q20 -19 35 -39l52 -70q20 -26 14 -31z" />
    <glyph glyph-name="Oacute" unicode="&#xd3;" horiz-adv-x="823" 
d="M45 341q0 154 107 253q104 97 259 97q158 0 261 -95q106 -98 106 -255q0 -156 -108 -254q-104 -96 -261 -96q-155 0 -258 97q-106 99 -106 253zM146 341q0 -114 75.5 -187t189.5 -73q115 0 190.5 73t75.5 187t-75.5 187t-190.5 73q-114 0 -189.5 -73t-75.5 -187zM551 832
q-23 -23 -39 -35l-69 -52q-27 -20 -32 -14q-6 5 14 31l52 70q15 20 35 39q51 5 51 -18q0 -9 -12 -21z" />
    <glyph glyph-name="Ocircumflex" unicode="&#xd4;" horiz-adv-x="823" 
d="M45 341q0 154 107 253q104 97 259 97q158 0 261 -95q106 -98 106 -255q0 -156 -108 -254q-104 -96 -261 -96q-155 0 -258 97q-106 99 -106 253zM146 341q0 -114 75.5 -187t189.5 -73q115 0 190.5 73t75.5 187t-75.5 187t-190.5 73q-114 0 -189.5 -73t-75.5 -187zM411 771
l-114 -74v66l114 54l114 -54v-66z" />
    <glyph glyph-name="Ograve" unicode="&#xd2;" horiz-adv-x="823" 
d="M45 341q0 154 107 253q104 97 259 97q158 0 261 -95q106 -98 106 -255q0 -156 -108 -254q-104 -96 -261 -96q-155 0 -258 97q-106 99 -106 253zM146 341q0 -114 75.5 -187t189.5 -73q115 0 190.5 73t75.5 187t-75.5 187t-190.5 73q-114 0 -189.5 -73t-75.5 -187zM411 731
q-5 -6 -32 14l-69 52q-19 14 -39 35q-12 12 -12 21q0 23 51 18q20 -19 35 -39l52 -70q20 -26 14 -31z" />
    <glyph glyph-name="Uacute" unicode="&#xda;" horiz-adv-x="708" 
d="M648 682v-414q0 -137 -84 -209q-79 -68 -219 -68q-126 0 -203 70q-81 73 -81 197v424h98v-403q0 -99 41 -140q58 -58 147 -58q105 0 160 55q43 43 43 149v397h98zM489 789q-23 -23 -39 -35l-69 -52q-27 -20 -32 -14q-6 5 14 31l52 70q15 20 35 39q51 5 51 -18
q0 -9 -12 -21z" />
    <glyph glyph-name="Ucircumflex" unicode="&#xdb;" horiz-adv-x="708" 
d="M648 682v-414q0 -137 -84 -209q-79 -68 -219 -68q-126 0 -203 70q-81 72 -81 197v424h98v-403q0 -99 41 -140q58 -58 147 -58q105 0 160 55q43 43 43 149v397h98zM400 877l94 -151h-55l-87 87l-83 -87h-53l91 151h93z" />
    <glyph glyph-name="Ugrave" unicode="&#xd9;" horiz-adv-x="708" 
d="M648 682v-414q0 -137 -84 -209q-79 -68 -219 -68q-126 0 -203 70q-81 73 -81 197v424h98v-403q0 -99 41 -140q58 -58 147 -58q105 0 160 55q43 43 43 149v397h98zM347 688q-5 -6 -32 14l-69 52q-19 14 -39 35q-12 12 -12 21q0 23 51 18q20 -19 35 -39l52 -70
q20 -26 14 -31z" />
    <glyph glyph-name="glyph231" horiz-adv-x="278" 
 />
    <glyph glyph-name="glyph232" horiz-adv-x="278" 
 />
    <glyph glyph-name="glyph258" horiz-adv-x="278" 
 />
    <glyph glyph-name="glyph259" horiz-adv-x="278" 
 />
    <glyph glyph-name="sfthyphen" unicode="&#xad;" horiz-adv-x="338" 
d="M8 174l33 122h246l-33 -122h-246z" />
    <glyph glyph-name="Cacute" unicode="&#x106;" horiz-adv-x="711" 
d="M656 635v-105q-122 71 -235 71q-115 0 -193.5 -73t-78.5 -188q0 -119 78 -189t198 -70q119 0 238 77v-107q-115 -60 -247 -60q-176 0 -280 116q-88 99 -88 224q0 160 108 261q105 99 266 99q100 0 234 -56zM355 909h100l-112 -147h-55z" />
    <glyph glyph-name="cacute" unicode="&#x107;" horiz-adv-x="441" 
d="M393 427v-95q-66 44 -124 44q-64 0 -100.5 -43.5t-36.5 -108.5q0 -70 41 -109.5t111 -39.5q52 0 119 30v-88q-56 -26 -134 -26q-100 0 -164 62.5t-64 162.5q0 108 57 173q59 69 165 69q60 0 130 -31zM156 654h100l-112 -147h-55z" />
    <glyph glyph-name="Ccaron" unicode="&#x10c;" horiz-adv-x="711" 
d="M656 635v-105q-122 71 -235 71q-115 0 -193.5 -73t-78.5 -188q0 -119 78 -189t198 -70q119 0 238 77v-107q-115 -60 -247 -60q-176 0 -280 116q-88 99 -88 224q0 160 108 261q105 99 266 99q100 0 234 -56zM389 762h-93l-91 151h53l83 -87l87 87h55z" />
    <glyph glyph-name="ccaron" unicode="&#x10d;" horiz-adv-x="441" 
d="M393 427v-95q-66 44 -124 44q-64 0 -100.5 -43.5t-36.5 -108.5q0 -70 41 -109.5t111 -39.5q52 0 119 30v-88q-56 -26 -134 -26q-100 0 -164 62.5t-64 162.5q0 108 57 173q59 69 165 69q60 0 130 -31zM190 507h-93l-91 151h53l83 -87l87 87h55z" />
    <glyph glyph-name="Dslash" unicode="&#x110;" horiz-adv-x="750" 
d="M76 0v297h-80v88h80v297h265q152 0 256 -94q107 -97 107 -247q0 -151 -107 -247q-103 -94 -255 -94h-266zM174 88h158q121 0 194 65q77 69 77 188q0 122 -79 190q-75 63 -199 63h-151v-209h193v-88h-193v-209z" />
    <glyph glyph-name="dcroat" unicode="&#x111;" horiz-adv-x="510" 
d="M362 75v286q-42 17 -83 17q-67 0 -105.5 -44t-38.5 -112q0 -147 137 -147h90zM451 558h49v-60h-49v-498h-189q-103 0 -162 67q-56 63 -56 168q0 99 62.5 161t161.5 62q44 0 94 -18v58h-96v60h96v124h89v-124z" />
    <glyph glyph-name="Gbreve" unicode="&#x11e;" horiz-adv-x="767" 
d="M673 336v-289q-127 -56 -260 -56q-155 0 -259 96t-104 250t107 255q104 99 259 99q105 0 243 -58v-99q-122 67 -245 67q-112 0 -187.5 -74.5t-75.5 -186.5q0 -117 80 -189q77 -70 196 -70q63 0 148 27v140h-131v88h229zM436 898h68q-23 -129 -140 -129q-120 0 -143 129
h67q15 -62 77 -62q57 0 71 62z" />
    <glyph glyph-name="gbreve" unicode="&#x11f;" horiz-adv-x="492" 
d="M421 449v-69h-92q47 -47 47 -98q0 -57 -42 -101q-26 -27 -74 -38q-32 -7 -63 -13q-45 -13 -45 -34q0 -31 137 -58q130 -26 130 -125q0 -77 -71 -114q-56 -29 -141 -29q-76 0 -134 30q-73 37 -73 106q0 96 113 124q-45 28 -45 57q0 47 71 64v2q-99 42 -99 141q0 79 61 120
q52 35 135 35h185zM296 293q0 33 -26.5 56t-60.5 23q-35 0 -62 -23t-27 -58q0 -38 25.5 -60t64.5 -22q38 0 62 23t24 61zM333 -94q0 40 -57 59q-40 13 -90 13q-38 0 -66 -15q-36 -18 -36 -53q0 -69 125 -69q124 0 124 65zM236 643h68q-23 -129 -140 -129q-120 0 -143 129h67
q15 -62 77 -62q57 0 71 62z" />
    <glyph glyph-name="Idotaccent" unicode="&#x130;" horiz-adv-x="429" 
d="M174 682v-682h-98v682h98zM194 883q20 0 33 -13t13 -33t-13 -33.5t-33 -13.5q-19 0 -33 14t-14 33q0 20 13.5 33t33.5 13z" />
    <glyph glyph-name="Scedilla" unicode="&#x15e;" horiz-adv-x="656" 
d="M399 643v-111q-75 71 -160 71q-42 0 -72 -19q-36 -22 -36 -62q0 -53 76 -100l143 -89q76 -64 76 -157q0 -82 -54.5 -133.5t-136.5 -51.5q-107 0 -191 63v124q77 -99 180 -99q42 0 74 21q37 25 37 65q0 58 -76 110q-40 27 -143 93q-76 62 -76 141q0 87 61 137
q56 45 146 45q80 0 152 -48zM248 8l-7 -24q54 -15 54 -63q0 -92 -115 -92q-19 0 -40 3v55q15 -2 28 -2q56 0 56 28q0 31 -58 25l25 70h57z" />
    <glyph glyph-name="scedilla" unicode="&#x15f;" horiz-adv-x="383" 
d="M324 421v-88q-71 47 -130 47t-59 -41q0 -22 109 -90q101 -63 101 -126q0 -61 -43 -96.5t-105 -35.5q-77 0 -156 41v96q88 -61 147 -59q66 2 66 51q0 25 -54 57q-92 55 -102 63q-54 44 -54 96q0 61 45 93q40 29 103 29q62 0 132 -37zM151 8l-7 -24q54 -15 54 -63
q0 -92 -115 -92q-19 0 -40 3v55q15 -2 28 -2q56 0 56 28q0 31 -58 25l25 70h57z" />
    <glyph glyph-name="franc" unicode="&#x20a3;" horiz-adv-x="1035" 
d="M440 682v-88h-266v-189h266v-88h-266v-317h-98v682h364zM721 449h89v-103h2q64 112 130 112q52 0 107 -52l-47 -77q-46 44 -83 44q-51 0 -82 -45q-27 -40 -27 -93v-235h-89v449z" />
    <glyph glyph-name="u20AB" unicode="&#x20ab;" horiz-adv-x="393" 
d="M197 501q-48 0 -84 -88q-20 -49 -20 -90q0 -51 39 -51q41 0 74 71q28 60 28 107q0 51 -37 51zM200 267q-53 -62 -106 -62q-91 0 -91 102q0 81 54 153q59 78 137 78q34 0 61 -24l20 75h-100l10 36h100l2 16q0 31 -48 32l7 33q67 2 128 14l15 3q6 0 6 -9q-1 -2 -3 -12
l-19 -77h65l-10 -36h-65l-69 -280q-5 -20 -5 -27q0 -15 12 -15q6 0 49 42l20 -18q-70 -86 -117 -86q-43 0 -53 62zM9 160h221v-56h-221v56z" />
    <glyph glyph-name="SF370000" unicode="&#x255f;" horiz-adv-x="718" 
d="M362 686l305 -686h-100l-91 201h-290l-86 -201h-100l293 686h69zM326 536l-102 -247h212z" />
    <glyph glyph-name="SF420000" unicode="&#x2560;" horiz-adv-x="681" 
d="M462 682v-88h-289v-206h279v-88h-279v-212h298v-88h-396v682h387z" />
    <glyph glyph-name="SF190000" unicode="&#x2561;" horiz-adv-x="429" 
d="M174 682v-682h-98v682h98z" />
    <glyph glyph-name="SF200000" unicode="&#x2562;" horiz-adv-x="773" 
d="M45 341q0 154 107 253q104 97 259 97q157 0 261 -96q106 -99 106 -254t-108 -254q-104 -96 -261 -96q-154 0 -259 98.5t-105 251.5zM146 341q0 -113 75.5 -186.5t189.5 -73.5t190 73t76 187t-76 187t-190 73t-189.5 -73.5t-75.5 -186.5z" />
    <glyph glyph-name="SF230000" unicode="&#x2563;" horiz-adv-x="811" 
d="M648 682v-414q0 -137 -84 -209q-79 -68 -219 -68q-126 0 -203 70q-81 72 -81 197v424h98v-403q0 -99 41 -140q58 -58 147 -58q105 0 160 55q43 43 43 149v397h98z" />
    <glyph glyph-name="SF470000" unicode="&#x2564;" horiz-adv-x="699" 
d="M301 447l185 235h118l-253 -322v-360h-98v361l-253 321h118z" />
    <glyph glyph-name="SF480000" unicode="&#x2565;" horiz-adv-x="541" 
d="M411 80v-54q-53 -35 -86 -35q-56 0 -68 46q-58 -46 -121 -46q-47 0 -78.5 31.5t-31.5 78.5q0 60 49 95q28 20 104 47l79 28v24q0 79 -81 79q-80 0 -142 -74v97q52 61 149 61q74 0 118.5 -38t44.5 -110v-231q0 -23 17 -23q15 0 47 24zM258 91v131q-70 -24 -99 -42
q-43 -27 -43 -63q0 -28 18 -45.5t46 -17.5q39 0 78 37z" />
    <glyph glyph-name="SF410000" unicode="&#x2566;" horiz-adv-x="431" 
d="M438 130v-86q-79 -53 -179 -53q-99 0 -160 71q-58 68 -58 168q0 98 56.5 163t153.5 65q102 0 153 -75q42 -64 42 -172h-316q21 -135 151 -135q74 0 157 54zM132 270h226q-2 50 -29 80.5t-76 30.5q-102 0 -121 -111z" />
    <glyph glyph-name="SF450000" unicode="&#x2567;" horiz-adv-x="314" 
d="M154 449v-449h-89v449h89zM163 585q0 -22 -15.5 -37.5t-37.5 -15.5t-37.5 15.5t-15.5 37.5t15.5 37.5t37.5 15.5t37.5 -15.5t15.5 -37.5z" />
    <glyph glyph-name="SF460000" unicode="&#x2568;" horiz-adv-x="314" 
d="M154 449v-449h-89v449h89z" />
    <glyph glyph-name="SF400000" unicode="&#x2569;" horiz-adv-x="498" 
d="M273 458q104 0 173.5 -63t69.5 -166q0 -107 -67.5 -172.5t-175.5 -65.5q-104 0 -170.5 67t-66.5 171q0 99 69 164t168 65zM272 378q-64 0 -104.5 -42.5t-40.5 -106.5q0 -69 38 -112q39 -46 107 -46q72 0 112.5 42.5t40.5 114.5q0 66 -43.5 108t-109.5 42z" />
    <glyph glyph-name="SF540000" unicode="&#x256a;" horiz-adv-x="557" 
d="M437 0h-89v57q-61 -66 -133 -66q-76 0 -117 53q-38 48 -38 126v279h89v-285q0 -99 92 -99q62 0 107 63v321h89v-449z" />
    <glyph glyph-name="SF530000" unicode="&#x256b;" horiz-adv-x="497" 
d="M438 449l-318 -679h-99l153 326l-174 353h101l121 -253l116 253h100z" />
    <glyph glyph-name="circle" unicode="&#x25cb;" horiz-adv-x="718" 
d="M440 889l94 -151h-55l-87 87l-83 -87h-53l91 151h93zM380 1074h100l-112 -147h-55z" />
    <glyph glyph-name="H18533" unicode="&#x25cf;" horiz-adv-x="718" 
d="M440 889l94 -151h-55l-87 87l-83 -87h-53l91 151h93zM471 1075l67 -147h-55l-112 147h100z" />
    <glyph glyph-name="invbullet" unicode="&#x25d8;" horiz-adv-x="718" 
d="M440 889l94 -151h-55l-87 87l-83 -87h-53l91 151h93zM614 903q9 28 11 64q1 11 8 13q2 0 8 1q67 11 67 54q0 35 -28 35q-5 0 -14 -1t-14 -1q-21 0 -21 18q0 28 32 28q46 0 75 -24q31 -27 27 -72q-6 -59 -87 -81q-25 -7 -31 -34h-33z" />
    <glyph glyph-name="invcircle" unicode="&#x25d9;" horiz-adv-x="718" 
d="M440 889l94 -151h-55l-87 87l-83 -87h-53l91 151h93zM550 1063v0h38q0 -45 -17 -77q-21 -41 -62 -41q-25 0 -70.5 17.5t-68.5 17.5q-29 0 -34 -35h-41q8 115 78 115q26 0 76 -17.5t65 -17.5q30 0 36 38z" />
    <glyph glyph-name="glyph275" horiz-adv-x="249" 
 />
    <glyph glyph-name="glyph276" horiz-adv-x="249" 
 />
    <glyph glyph-name="ch270" unicode="&#xb7;" horiz-adv-x="249" 
d="M38 348q0 34 23 57t57 23t57.5 -23t23.5 -57t-23.5 -57.5t-57.5 -23.5t-57 23.5t-23 57.5z" />
    <glyph glyph-name="ch270" unicode="&#x2219;" horiz-adv-x="249" 
d="M38 348q0 34 23 57t57 23t57.5 -23t23.5 -57t-23.5 -57.5t-57.5 -23.5t-57 23.5t-23 57.5z" />
    <glyph glyph-name="euro" horiz-adv-x="498" 
d="M522 633l-23 -156l-48 6q0 157 -94 157q-103 0 -161 -211h172l-21 -48h-164q-6 -24 -16 -73h147l-21 -47h-134q-6 -41 -6 -74q0 -56 21 -91q26 -43 78 -43q58 0 101 68q24 38 51 119l55 -10l-54 -188q-77 -53 -159 -53q-111 0 -166 84q-47 71 -47 188h-74l21 47h56
q3 25 12 73h-66l21 48h59q41 112 108 183q83 88 187 88q94 0 165 -67z" />
    <glyph glyph-name="glyph261" 
d="M253 522q9 28 11 64q1 11 8 13q2 0 8 1q67 11 67 54q0 35 -28 35q-5 0 -14 -1t-14 -1q-21 0 -21 18q0 28 32 28q46 0 75 -24q31 -27 27 -72q-6 -59 -87 -81q-25 -7 -31 -34h-33z" />
    <glyph glyph-name="glyph262" horiz-adv-x="541" 
d="M237 657l94 -151h-55l-87 87l-83 -87h-53l91 151h93zM176 843h100l-112 -147h-55z" />
    <glyph glyph-name="glyph263" horiz-adv-x="541" 
d="M237 657l94 -151h-55l-87 87l-83 -87h-53l91 151h93zM268 843l67 -147h-55l-112 147h100z" />
    <glyph glyph-name="glyph264" horiz-adv-x="541" 
d="M237 657l94 -151h-55l-87 87l-83 -87h-53l91 151h93zM411 671q9 28 11 64q1 11 8 13q2 0 8 1q67 11 67 54q0 35 -28 35q-5 0 -14 -1t-14 -1q-21 0 -21 18q0 28 32 28q46 0 75 -24q31 -27 27 -72q-6 -59 -87 -81q-25 -7 -31 -34h-33z" />
    <glyph glyph-name="glyph265" horiz-adv-x="541" 
d="M237 657l94 -151h-55l-87 87l-83 -87h-53l91 151h93zM347 831v0h38q0 -45 -17 -77q-21 -41 -62 -41q-25 0 -70.5 17.5t-68.5 17.5q-29 0 -34 -35h-41q8 115 78 115q26 0 76 -17.5t65 -17.5q30 0 36 38z" />
    <glyph glyph-name="glyph266" horiz-adv-x="541" 
d="M270 642h68q-23 -129 -140 -129q-120 0 -143 129h67q15 -62 77 -62q57 0 71 62zM255 843h100l-112 -147h-55z" />
    <glyph glyph-name="glyph267" horiz-adv-x="541" 
d="M270 642h68q-23 -129 -140 -129q-120 0 -143 129h67q15 -62 77 -62q57 0 71 62zM215 843l67 -147h-55l-112 147h100z" />
    <glyph glyph-name="glyph268" horiz-adv-x="541" 
d="M270 642h68q-23 -129 -140 -129q-120 0 -143 129h67q15 -62 77 -62q57 0 71 62zM306 671q9 28 11 64q1 11 8 13q2 0 8 1q67 11 67 54q0 35 -28 35q-5 0 -14 -1t-14 -1q-21 0 -21 18q0 28 32 28q46 0 75 -24q31 -27 27 -72q-6 -59 -87 -81q-25 -7 -31 -34h-33z" />
    <glyph glyph-name="glyph269" horiz-adv-x="541" 
d="M270 642h68q-23 -129 -140 -129q-120 0 -143 129h67q15 -62 77 -62q57 0 71 62zM347 831v0h38q0 -45 -17 -77q-21 -41 -62 -41q-25 0 -70.5 17.5t-68.5 17.5q-29 0 -34 -35h-41q8 115 78 115q26 0 76 -17.5t65 -17.5q30 0 36 38z" />
    <glyph glyph-name="glyph270" horiz-adv-x="249" 
 />
    <glyph glyph-name="glyph271" unicode="&#x102;" horiz-adv-x="667" 
d="M362 686l305 -686h-100l-91 201h-290l-86 -201h-100l293 686h69zM326 536l-102 -247h212zM383 800l65 -10q-15 -84 -122 -84q-110 0 -125 84l64 10q14 -60 62 -60q42 0 56 60z" />
    <glyph glyph-name="glyph272" unicode="&#x103;" horiz-adv-x="427" 
d="M411 80v-54q-53 -35 -86 -35q-56 0 -68 46q-58 -46 -121 -46q-47 0 -78.5 31.5t-31.5 78.5q0 60 49 95q28 20 104 47l79 28v24q0 79 -81 79q-80 0 -142 -74v97q52 61 149 61q74 0 118.5 -38t44.5 -110v-231q0 -23 17 -23q15 0 47 24zM258 91v131q-70 -24 -99 -42
q-43 -27 -43 -63q0 -28 18 -45.5t46 -17.5q39 0 78 37zM236 562l58 -9q-14 -75 -110 -75q-98 0 -112 75l58 9q13 -54 55 -54q37 0 51 54z" />
    <glyph glyph-name="glyph273" unicode="&#x128;" horiz-adv-x="250" 
d="M174 682v-682h-98v682h98zM8 719l-20 28q10 10 37 38q23 24 39 24q13 0 63 -19q36 -19 60 -19q13 0 25 13q19 21 25 24l20 -25q-55 -62 -73 -62q-27 0 -63 19q-50 19 -61 19q-14 0 -29 -15q-11 -12 -23 -25z" />
    <glyph glyph-name="glyph274" unicode="&#x129;" horiz-adv-x="219" 
d="M154 449v-449h-89v449h89zM-6 487l-20 28q10 10 37 38q23 24 39 24q13 0 63 -19q36 -19 60 -19q13 0 25 13q19 21 25 24l20 -25q-55 -62 -73 -62q-27 0 -63 19q-50 19 -61 19q-14 0 -29 -15q-11 -12 -23 -25z" />
    <glyph glyph-name="ch903" unicode="&#x168;" horiz-adv-x="708" 
d="M648 682v-414q0 -137 -84 -209q-79 -68 -219 -68q-126 0 -203 70q-81 73 -81 197v424h98v-403q0 -99 41 -140q58 -58 147 -58q105 0 160 55q43 43 43 149v397h98zM232 684l-20 28q10 10 37 38q23 24 39 24q13 0 63 -19q36 -19 60 -19q13 0 25 13q19 21 25 24l20 -25
q-55 -62 -73 -62q-27 0 -63 19q-50 19 -61 19q-14 0 -29 -15q-11 -12 -23 -25z" />
    <glyph glyph-name="ch904" unicode="&#x169;" 
d="M437 0h-89v57q-61 -66 -133 -66q-76 0 -117 53q-38 48 -38 126v279h89v-285q0 -99 92 -99q62 0 107 63v321h89v-449zM133 456l-20 28q10 10 37 38q23 24 39 24q13 0 63 -19q36 -19 60 -19q13 0 25 13q19 21 25 24l20 -25q-55 -62 -73 -62q-27 0 -63 19q-50 19 -61 19
q-14 0 -29 -15q-11 -12 -23 -25z" />
    <glyph glyph-name="glyph277" unicode="&#x1a0;" horiz-adv-x="823" 
d="M146 341q0 -114 75.5 -187t189.5 -73q115 0 190.5 73t75.5 187t-75.5 187t-190.5 73q-114 0 -189.5 -73t-75.5 -187zM598 647l69 35q-3 25 -28 40q11 40 34 40q7 0 12 -3q39 -23 39 -72q0 -63 -51 -94q105 -100 105 -252q0 -156 -108 -254q-104 -96 -261 -96
q-155 0 -258 97q-106 99 -106 253t107 253q104 97 259 97q105 0 187 -44z" />
    <glyph glyph-name="glyph278" unicode="&#x1a1;" horiz-adv-x="552" 
d="M272 378q-64 0 -104.5 -42.5t-40.5 -106.5q0 -68 39 -113t106 -45q72 0 112.5 42.5t40.5 114.5q0 66 -43.5 108t-109.5 42zM399 428l60 21q-3 21 -23 32q9 33 28 33q4 0 9 -3q32 -18 32 -58q0 -49 -42 -76q53 -61 53 -148q0 -108 -67.5 -173t-175.5 -65
q-104 0 -170.5 66.5t-66.5 171.5q0 99 68.5 164t168.5 65q69 0 126 -30z" />
    <glyph glyph-name="glyph279" unicode="&#x1af;" horiz-adv-x="708" 
d="M647 682q-3 25 -28 40q11 40 34 40q7 0 12 -3q40 -23 40 -72q0 -65 -57 -97v-322q0 -137 -84 -209q-79 -68 -219 -68q-126 0 -203 70q-81 73 -81 197v424h98v-403q0 -99 41 -140q58 -58 147 -58q105 0 160 55q43 43 43 149v397h97z" />
    <glyph glyph-name="glyph280" unicode="&#x1b0;" 
d="M437 376v-376h-89v57q-61 -66 -133 -66q-76 0 -117 53q-38 48 -38 126v279h89v-285q0 -99 92 -99q62 0 107 63v321h87q-3 21 -23 32q9 33 28 33q4 0 9 -3q32 -18 32 -58q0 -52 -44 -77z" />
    <glyph glyph-name="glyph281" unicode="&#x1ea0;" horiz-adv-x="667" 
d="M362 686l305 -686h-100l-91 201h-290l-86 -201h-100l293 686h69zM326 536l-102 -247h212zM326 0q23 0 38.5 -15.5t15.5 -38.5t-15.5 -38.5t-38.5 -15.5t-38.5 15.5t-15.5 38.5q0 22 16 38t38 16z" />
    <glyph glyph-name="glyph282" unicode="&#x1ea1;" horiz-adv-x="427" 
d="M411 80v-54q-53 -35 -86 -35q-56 0 -68 46q-58 -46 -121 -46q-47 0 -78.5 31.5t-31.5 78.5q0 60 49 95q28 20 104 47l79 28v24q0 79 -81 79q-80 0 -142 -74v97q52 61 149 61q74 0 118.5 -38t44.5 -110v-231q0 -23 17 -23q15 0 47 24zM258 91v131q-70 -24 -99 -42
q-43 -27 -43 -63q0 -28 18 -45.5t46 -17.5q39 0 78 37zM184 -37q20 0 34.5 -14.5t14.5 -34.5t-14.5 -34.5t-34.5 -14.5t-34.5 14.5t-14.5 34.5t14.5 34.5t34.5 14.5z" />
    <glyph glyph-name="glyph283" unicode="&#x1ea2;" horiz-adv-x="667" 
d="M362 686l305 -686h-100l-91 201h-290l-86 -201h-100l293 686h69zM326 536l-102 -247h212zM294 843l63 35q61 5 61 -45q0 -21 -47 -63t-45 -53q-19 9 -19 30q0 8 28.5 26t28.5 43q0 24 -32 24q-5 0 -8.5 -2t-4.5 -2q-4 0 -13 3.5t-12 3.5z" />
    <glyph glyph-name="glyph284" unicode="&#x1ea3;" horiz-adv-x="427" 
d="M411 80v-54q-53 -35 -86 -35q-56 0 -68 46q-58 -46 -121 -46q-47 0 -78.5 31.5t-31.5 78.5q0 60 49 95q28 20 104 47l79 28v24q0 79 -81 79q-80 0 -142 -74v97q52 61 149 61q74 0 118.5 -38t44.5 -110v-231q0 -23 17 -23q15 0 47 24zM258 91v131q-70 -24 -99 -42
q-43 -27 -43 -63q0 -28 18 -45.5t46 -17.5q39 0 78 37zM152 612l63 35q61 5 61 -45q0 -21 -47 -63t-45 -53q-19 9 -19 30q0 8 28.5 26t28.5 43q0 24 -32 24q-5 0 -8.5 -2t-4.5 -2q-4 0 -13 3.5t-12 3.5z" />
    <glyph glyph-name="glyph285" unicode="&#x1ea4;" horiz-adv-x="667" 
d="M362 686l305 -686h-100l-91 201h-290l-86 -201h-100l293 686h69zM326 536l-102 -247h212zM325 761l-114 -74v66l114 54l114 -54v-66zM549 884q-23 -23 -39 -35l-69 -52q-27 -20 -32 -14q-6 5 14 31l52 70q15 20 35 39q51 5 51 -18q0 -9 -12 -21z" />
    <glyph glyph-name="glyph286" unicode="&#x1ea5;" horiz-adv-x="427" 
d="M411 80v-54q-53 -35 -86 -35q-56 0 -68 46q-58 -46 -121 -46q-47 0 -78.5 31.5t-31.5 78.5q0 60 49 95q28 20 104 47l79 28v24q0 79 -81 79q-80 0 -142 -74v97q52 61 149 61q74 0 118.5 -38t44.5 -110v-231q0 -23 17 -23q15 0 47 24zM258 91v131q-70 -24 -99 -42
q-43 -27 -43 -63q0 -28 18 -45.5t46 -17.5q39 0 78 37zM184 525l-103 -67v60l103 48l103 -48v-60zM350 604l-62 -47q-24 -18 -28 -12q-6 3 12 27l47 63q15 20 31 35q47 5 47 -16q0 -14 -47 -50z" />
    <glyph glyph-name="glyph287" unicode="&#x1ea6;" horiz-adv-x="667" 
d="M362 686l305 -686h-100l-91 201h-290l-86 -201h-100l293 686h69zM326 536l-102 -247h212zM325 761l-114 -74v66l114 54l114 -54v-66zM241 783q-5 -6 -32 14l-69 52q-19 14 -39 35q-12 12 -12 21q0 23 51 18q20 -19 35 -39l52 -70q20 -26 14 -31z" />
    <glyph glyph-name="glyph288" unicode="&#x1ea7;" horiz-adv-x="427" 
d="M411 80v-54q-53 -35 -86 -35q-56 0 -68 46q-58 -46 -121 -46q-47 0 -78.5 31.5t-31.5 78.5q0 60 49 95q28 20 104 47l79 28v24q0 79 -81 79q-80 0 -142 -74v97q52 61 149 61q74 0 118.5 -38t44.5 -110v-231q0 -23 17 -23q15 0 47 24zM258 91v131q-70 -24 -99 -42
q-43 -27 -43 -63q0 -28 18 -45.5t46 -17.5q39 0 78 37zM184 525l-103 -67v60l103 48l102 -48v-60zM108 545q-4 -6 -28 12l-63 47q-16 12 -35 31q-11 11 -11 19q0 21 46 16q17 -14 32 -35l47 -63q18 -24 12 -27z" />
    <glyph glyph-name="glyph289" unicode="&#x1ea8;" horiz-adv-x="667" 
d="M362 686l305 -686h-100l-91 201h-290l-86 -201h-100l293 686h69zM326 536l-102 -247h212zM325 761l-114 -74v66l114 54l114 -54v-66zM397 899l63 35q61 5 61 -45q0 -21 -47 -63t-45 -53q-19 9 -19 30q0 8 28.5 26t28.5 43q0 24 -32 24q-5 0 -8.5 -2t-4.5 -2q-4 0 -13 3.5
t-12 3.5z" />
    <glyph glyph-name="glyph290" unicode="&#x1ea9;" horiz-adv-x="427" 
d="M411 80v-54q-53 -35 -86 -35q-56 0 -68 46q-58 -46 -121 -46q-47 0 -78.5 31.5t-31.5 78.5q0 60 49 95q28 20 104 47l79 28v24q0 79 -81 79q-80 0 -142 -74v97q52 61 149 61q74 0 118.5 -38t44.5 -110v-231q0 -23 17 -23q15 0 47 24zM258 91v131q-70 -24 -99 -42
q-43 -27 -43 -63q0 -28 18 -45.5t46 -17.5q39 0 78 37zM184 526l-103 -67v60l103 48l103 -48v-60zM256 666l63 35q61 5 61 -45q0 -21 -47 -63t-45 -53q-19 9 -19 30q0 8 28.5 26t28.5 43q0 24 -32 24q-5 0 -8.5 -2t-4.5 -2q-4 0 -13 3.5t-12 3.5z" />
    <glyph glyph-name="glyph291" unicode="&#x1eaa;" horiz-adv-x="667" 
d="M362 686l305 -686h-100l-91 201h-290l-86 -201h-100l293 686h69zM326 536l-102 -247h212zM325 761l-114 -74v66l114 54l114 -54v-66zM210 828l-20 28q10 10 37 38q23 24 39 24q13 0 63 -19q36 -19 60 -19q13 0 25 13q19 21 25 24l20 -25q-55 -62 -73 -62q-27 0 -63 19
q-50 19 -61 19q-14 0 -29 -15q-11 -12 -23 -25z" />
    <glyph glyph-name="glyph292" unicode="&#x1eab;" horiz-adv-x="427" 
d="M411 80v-54q-53 -35 -86 -35q-56 0 -68 46q-58 -46 -121 -46q-47 0 -78.5 31.5t-31.5 78.5q0 60 49 95q28 20 104 47l79 28v24q0 79 -81 79q-80 0 -142 -74v97q52 61 149 61q74 0 118.5 -38t44.5 -110v-231q0 -23 17 -23q15 0 47 24zM258 91v131q-70 -24 -99 -42
q-43 -27 -43 -63q0 -28 18 -45.5t46 -17.5q39 0 78 37zM184 533l-114 -74v66l114 54l114 -54v-66zM69 600l-20 28q10 10 37 38q23 24 39 24q13 0 63 -19q36 -19 60 -19q13 0 25 13q19 21 25 24l20 -25q-55 -62 -73 -62q-27 0 -63 19q-50 19 -61 19q-14 0 -29 -15
q-11 -12 -23 -25z" />
    <glyph glyph-name="glyph293" unicode="&#x1eac;" horiz-adv-x="667" 
d="M362 686l305 -686h-100l-91 201h-290l-86 -201h-100l293 686h69zM326 536l-102 -247h212zM325 761l-114 -74v66l114 54l114 -54v-66zM326 0q23 0 38.5 -15.5t15.5 -38.5t-15.5 -38.5t-38.5 -15.5t-38.5 15.5t-15.5 38.5q0 22 16 38t38 16z" />
    <glyph glyph-name="glyph294" unicode="&#x1ead;" horiz-adv-x="427" 
d="M411 80v-54q-53 -35 -86 -35q-56 0 -68 46q-58 -46 -121 -46q-47 0 -78.5 31.5t-31.5 78.5q0 60 49 95q28 20 104 47l79 28v24q0 79 -81 79q-80 0 -142 -74v97q52 61 149 61q74 0 118.5 -38t44.5 -110v-231q0 -23 17 -23q15 0 47 24zM258 91v131q-70 -24 -99 -42
q-43 -27 -43 -63q0 -28 18 -45.5t46 -17.5q39 0 78 37zM184 525l-103 -67v60l103 48l103 -48v-60zM184 -37q20 0 34.5 -14.5t14.5 -34.5t-14.5 -34.5t-34.5 -14.5t-34.5 14.5t-14.5 34.5t14.5 34.5t34.5 14.5z" />
    <glyph glyph-name="glyph295" unicode="&#x1eae;" horiz-adv-x="667" 
d="M362 686l305 -686h-100l-91 201h-290l-86 -201h-100l293 686h69zM326 536l-102 -247h212zM383 800l65 -10q-15 -84 -122 -84q-110 0 -125 84l64 10q14 -60 62 -60q42 0 56 60zM466 903q-23 -23 -39 -35l-69 -52q-27 -20 -32 -14q-6 5 14 31l52 70q15 20 35 39
q51 5 51 -18q0 -9 -12 -21z" />
    <glyph glyph-name="glyph296" unicode="&#x1eaf;" horiz-adv-x="427" 
d="M411 80v-54q-53 -35 -86 -35q-56 0 -68 46q-58 -46 -121 -46q-47 0 -78.5 31.5t-31.5 78.5q0 60 49 95q28 20 104 47l79 28v24q0 79 -81 79q-80 0 -142 -74v97q52 61 149 61q74 0 118.5 -38t44.5 -110v-231q0 -23 17 -23q15 0 47 24zM258 91v131q-70 -24 -99 -42
q-43 -27 -43 -63q0 -28 18 -45.5t46 -17.5q39 0 78 37zM236 562l58 -9q-14 -75 -110 -75q-98 0 -112 75l58 9q13 -54 55 -54q37 0 51 54zM310 655q-7 -7 -35 -32l-62 -46q-24 -18 -29 -13t13 28l47 63q12 16 31 35q46 5 46 -16q0 -8 -11 -19z" />
    <glyph glyph-name="glyph297" unicode="&#x1eb0;" horiz-adv-x="667" 
d="M362 686l305 -686h-100l-91 201h-290l-86 -201h-100l293 686h69zM326 536l-102 -247h212zM383 800l65 -10q-15 -84 -122 -84q-110 0 -125 84l64 10q14 -60 62 -60q42 0 56 60zM326 802q-5 -6 -32 14l-69 52q-19 14 -39 35q-12 12 -12 21q0 23 51 18q20 -19 35 -39l52 -70
q20 -26 14 -31z" />
    <glyph glyph-name="glyph298" unicode="&#x1eb1;" horiz-adv-x="427" 
d="M411 80v-54q-53 -35 -86 -35q-56 0 -68 46q-58 -46 -121 -46q-47 0 -78.5 31.5t-31.5 78.5q0 60 49 95q28 20 104 47l79 28v24q0 79 -81 79q-80 0 -142 -74v97q52 61 149 61q74 0 118.5 -38t44.5 -110v-231q0 -23 17 -23q15 0 47 24zM258 91v131q-70 -24 -99 -42
q-43 -27 -43 -63q0 -28 18 -45.5t46 -17.5q39 0 78 37zM236 562l58 -9q-14 -75 -110 -75q-98 0 -112 75l58 9q13 -54 55 -54q37 0 51 54zM184 564q-4 -5 -28 13l-62 46q-3 2 -36 32q-10 11 -10 18q0 22 46 17q19 -19 31 -35l47 -63q18 -24 12 -28z" />
    <glyph glyph-name="glyph299" unicode="&#x1eb2;" horiz-adv-x="667" 
d="M362 686l305 -686h-100l-91 201h-290l-86 -201h-100l293 686h69zM326 536l-102 -247h212zM383 800l65 -10q-15 -84 -122 -84q-110 0 -125 84l64 10q14 -60 62 -60q42 0 56 60zM294 916l63 35q61 5 61 -45q0 -21 -47 -63t-45 -53q-19 9 -19 30q0 8 28.5 26t28.5 43
q0 24 -32 24q-5 0 -8.5 -2t-4.5 -2q-4 0 -13 3.5t-12 3.5z" />
    <glyph glyph-name="glyph300" unicode="&#x1eb3;" horiz-adv-x="427" 
d="M411 80v-54q-53 -35 -86 -35q-56 0 -68 46q-58 -46 -121 -46q-47 0 -78.5 31.5t-31.5 78.5q0 60 49 95q28 20 104 47l79 28v24q0 79 -81 79q-80 0 -142 -74v97q52 61 149 61q74 0 118.5 -38t44.5 -110v-231q0 -23 17 -23q15 0 47 24zM258 91v131q-70 -24 -99 -42
q-43 -27 -43 -63q0 -28 18 -45.5t46 -17.5q39 0 78 37zM235 562l59 -9q-14 -75 -110 -75q-99 0 -113 75l58 9q13 -54 56 -54q38 0 50 54zM152 681l63 35q61 5 61 -45q0 -21 -47 -63t-45 -53q-19 9 -19 30q0 8 28.5 26t28.5 43q0 24 -32 24q-5 0 -8.5 -2t-4.5 -2
q-4 0 -13 3.5t-12 3.5z" />
    <glyph glyph-name="glyph301" unicode="&#x1eb4;" horiz-adv-x="667" 
d="M362 686l305 -686h-100l-91 201h-290l-86 -201h-100l293 686h69zM326 536l-102 -247h212zM383 800l65 -10q-15 -84 -122 -84q-110 0 -125 84l64 10q14 -60 62 -60q42 0 56 60zM326 800l-20 28q10 10 37 38q23 24 39 24q13 0 63 -19q36 -19 60 -19q13 0 25 13q19 21 25 24
l20 -25q-55 -62 -73 -62q-27 0 -63 19q-50 19 -61 19q-14 0 -29 -15q-11 -12 -23 -25z" />
    <glyph glyph-name="glyph302" unicode="&#x1eb5;" horiz-adv-x="427" 
d="M411 80v-54q-53 -35 -86 -35q-56 0 -68 46q-58 -46 -121 -46q-47 0 -78.5 31.5t-31.5 78.5q0 60 49 95q28 20 104 47l79 28v24q0 79 -81 79q-80 0 -142 -74v97q52 61 149 61q74 0 118.5 -38t44.5 -110v-231q0 -23 17 -23q15 0 47 24zM258 91v131q-70 -24 -99 -42
q-43 -27 -43 -63q0 -28 18 -45.5t46 -17.5q39 0 78 37zM234 563l59 -9q-14 -76 -110 -76q-100 0 -112 76l57 9q12 -54 56 -54q38 0 50 54zM183 563l-18 25q2 1 33 34q21 22 36 22q10 0 56 -17q34 -18 54 -18q14 0 45 34l18 -23q-49 -55 -66 -55q-24 0 -56 17q-46 17 -55 17
q-13 0 -23 -11q-19 -21 -24 -25z" />
    <glyph glyph-name="glyph303" unicode="&#x1eb6;" horiz-adv-x="667" 
d="M362 686l305 -686h-100l-91 201h-290l-86 -201h-100l293 686h69zM326 536l-102 -247h212zM383 800l65 -10q-15 -84 -122 -84q-110 0 -125 84l64 10q14 -60 62 -60q42 0 56 60zM326 0q23 0 38.5 -15.5t15.5 -38.5t-15.5 -38.5t-38.5 -15.5t-38.5 15.5t-15.5 38.5
q0 22 16 38t38 16z" />
    <glyph glyph-name="glyph304" unicode="&#x1eb7;" horiz-adv-x="427" 
d="M411 80v-54q-53 -35 -86 -35q-56 0 -68 46q-58 -46 -121 -46q-47 0 -78.5 31.5t-31.5 78.5q0 60 49 95q28 20 104 47l79 28v24q0 79 -81 79q-80 0 -142 -74v97q52 61 149 61q74 0 118.5 -38t44.5 -110v-231q0 -23 17 -23q15 0 47 24zM258 91v131q-70 -24 -99 -42
q-43 -27 -43 -63q0 -28 18 -45.5t46 -17.5q39 0 78 37zM184 -37q20 0 34.5 -14.5t14.5 -34.5t-14.5 -34.5t-34.5 -14.5t-34.5 14.5t-14.5 34.5t14.5 34.5t34.5 14.5zM236 562l58 -9q-14 -75 -110 -75q-98 0 -112 75l58 9q13 -54 55 -54q37 0 51 54z" />
    <glyph glyph-name="glyph305" unicode="&#x1eb8;" 
d="M462 682v-88h-289v-206h279v-88h-279v-212h298v-88h-396v682h387zM270 -30q23 0 38.5 -15.5t15.5 -38.5t-15.5 -38.5t-38.5 -15.5t-38.5 15.5t-15.5 38.5q0 22 16 38t38 16z" />
    <glyph glyph-name="glyph306" unicode="&#x1eb9;" horiz-adv-x="479" 
d="M438 130v-86q-79 -53 -179 -53q-99 0 -160 71q-58 67 -58 168q0 99 56.5 163.5t153.5 64.5q103 0 153 -75q42 -63 42 -172h-316q21 -135 151 -135q74 0 157 54zM132 270h226q-2 50 -29 80.5t-76 30.5q-102 0 -121 -111zM258 -37q20 0 34.5 -14.5t14.5 -34.5t-14.5 -34.5
t-34.5 -14.5t-34.5 14.5t-14.5 34.5t14.5 34.5t34.5 14.5z" />
    <glyph glyph-name="glyph307" unicode="&#x1eba;" 
d="M462 682v-88h-289v-206h279v-88h-279v-212h298v-88h-396v682h387zM238 849l63 35q61 5 61 -45q0 -21 -47 -63t-45 -53q-19 9 -19 30q0 8 28.5 26t28.5 43q0 24 -32 24q-5 0 -8.5 -2t-4.5 -2q-4 0 -13 3.5t-12 3.5z" />
    <glyph glyph-name="glyph308" unicode="&#x1ebb;" horiz-adv-x="479" 
d="M438 130v-86q-79 -53 -179 -53q-99 0 -160 71q-58 67 -58 168q0 99 56.5 163.5t153.5 64.5q103 0 153 -75q42 -63 42 -172h-316q21 -135 151 -135q74 0 157 54zM132 270h226q-2 50 -29 80.5t-76 30.5q-102 0 -121 -111zM219 612l63 35q61 5 61 -45q0 -21 -47 -63t-45 -53
q-19 9 -19 30q0 8 28.5 26t28.5 43q0 24 -32 24q-5 0 -8.5 -2t-4.5 -2q-4 0 -13 3.5t-12 3.5z" />
    <glyph glyph-name="glyph309" unicode="&#x1ebc;" 
d="M462 682v-88h-289v-206h279v-88h-279v-212h298v-88h-396v682h387zM154 720l-20 28q10 10 37 38q23 24 39 24q13 0 63 -19q36 -19 60 -19q13 0 25 13q19 21 25 24l20 -25q-55 -62 -73 -62q-27 0 -63 19q-50 19 -61 19q-14 0 -29 -15q-11 -12 -23 -25z" />
    <glyph glyph-name="glyph310" unicode="&#x1ebd;" horiz-adv-x="479" 
d="M438 130v-86q-79 -53 -179 -53q-99 0 -160 71q-58 67 -58 168q0 99 56.5 163.5t153.5 64.5q103 0 153 -75q42 -63 42 -172h-316q21 -135 151 -135q74 0 157 54zM132 270h226q-2 50 -29 80.5t-76 30.5q-102 0 -121 -111zM136 494l-20 28q10 10 37 38q23 24 39 24
q13 0 63 -19q36 -19 60 -19q13 0 25 13q19 21 25 24l20 -25q-55 -62 -73 -62q-27 0 -63 19q-50 19 -61 19q-14 0 -29 -15q-11 -12 -23 -25z" />
    <glyph glyph-name="glyph311" unicode="&#x1ebe;" 
d="M462 682v-88h-289v-206h279v-88h-279v-212h298v-88h-396v682h387zM270 777l-114 -74v66l114 54l114 -54v-66zM494 900q-23 -23 -39 -35l-69 -52q-27 -20 -32 -14q-6 5 14 31l52 70q15 20 35 39q51 5 51 -18q0 -9 -12 -21z" />
    <glyph glyph-name="glyph312" unicode="&#x1ebf;" horiz-adv-x="479" 
d="M438 130v-86q-79 -53 -179 -53q-99 0 -160 71q-58 67 -58 168q0 99 56.5 163.5t153.5 64.5q103 0 153 -75q42 -63 42 -172h-316q21 -135 151 -135q74 0 157 54zM132 270h226q-2 50 -29 80.5t-76 30.5q-102 0 -121 -111zM251 526l-103 -67v60l103 48l103 -48v-60zM417 605
l-62 -47q-24 -18 -28 -12q-6 3 12 27l47 63q15 20 31 35q47 5 47 -16q0 -14 -47 -50z" />
    <glyph glyph-name="glyph313" unicode="&#x1ec0;" 
d="M462 682v-88h-289v-206h279v-88h-279v-212h298v-88h-396v682h387zM270 776l-114 -74v66l114 54l114 -54v-66zM186 798q-5 -6 -32 14l-69 52q-19 14 -39 35q-12 12 -12 21q0 23 51 18q20 -19 35 -39l52 -70q20 -26 14 -31z" />
    <glyph glyph-name="glyph314" unicode="&#x1ec1;" horiz-adv-x="479" 
d="M438 130v-86q-79 -53 -179 -53q-99 0 -160 71q-58 67 -58 168q0 99 56.5 163.5t153.5 64.5q103 0 153 -75q42 -63 42 -172h-316q21 -135 151 -135q74 0 157 54zM132 270h226q-2 50 -29 80.5t-76 30.5q-102 0 -121 -111zM251 525l-103 -67v60l103 48l102 -48v-60zM175 545
q-4 -6 -28 12l-63 47q-16 12 -35 31q-11 11 -11 19q0 21 46 16q17 -14 32 -35l47 -63q18 -24 12 -27z" />
    <glyph glyph-name="glyph315" unicode="&#x1ec2;" 
d="M462 682v-88h-289v-206h279v-88h-279v-212h298v-88h-396v682h387zM270 777l-114 -74v66l114 54l114 -54v-66zM342 915l63 35q61 5 61 -45q0 -21 -47 -63t-45 -53q-19 9 -19 30q0 8 28.5 26t28.5 43q0 24 -32 24q-5 0 -8.5 -2t-4.5 -2q-4 0 -13 3.5t-12 3.5z" />
    <glyph glyph-name="glyph316" unicode="&#x1ec3;" horiz-adv-x="479" 
d="M438 130v-86q-79 -53 -179 -53q-99 0 -160 71q-58 67 -58 168q0 99 56.5 163.5t153.5 64.5q103 0 153 -75q42 -63 42 -172h-316q21 -135 151 -135q74 0 157 54zM132 270h226q-2 50 -29 80.5t-76 30.5q-102 0 -121 -111zM251 526l-103 -67v60l103 48l103 -48v-60zM323 666
l63 35q61 5 61 -45q0 -21 -47 -63t-45 -53q-19 9 -19 30q0 8 28.5 26t28.5 43q0 24 -32 24q-5 0 -8.5 -2t-4.5 -2q-4 0 -13 3.5t-12 3.5z" />
    <glyph glyph-name="glyph317" unicode="&#x1ec4;" 
d="M462 682v-88h-289v-206h279v-88h-279v-212h298v-88h-396v682h387zM269 776l-114 -74v66l114 54l114 -54v-66zM154 843l-20 28q10 10 37 38q23 24 39 24q13 0 63 -19q36 -19 60 -19q13 0 25 13q19 21 25 24l20 -25q-55 -62 -73 -62q-27 0 -63 19q-50 19 -61 19
q-14 0 -29 -15q-11 -12 -23 -25z" />
    <glyph glyph-name="glyph318" unicode="&#x1ec5;" horiz-adv-x="479" 
d="M438 130v-86q-79 -53 -179 -53q-99 0 -160 71q-58 67 -58 168q0 99 56.5 163.5t153.5 64.5q103 0 153 -75q42 -63 42 -172h-316q21 -135 151 -135q74 0 157 54zM132 270h226q-2 50 -29 80.5t-76 30.5q-102 0 -121 -111zM251 532l-114 -74v66l114 54l114 -54v-66zM136 599
l-20 28q10 10 37 38q23 24 39 24q13 0 63 -19q36 -19 60 -19q13 0 25 13q19 21 25 24l20 -25q-55 -62 -73 -62q-27 0 -63 19q-50 19 -61 19q-14 0 -29 -15q-11 -12 -23 -25z" />
    <glyph glyph-name="glyph319" unicode="&#x1ec6;" 
d="M462 682v-88h-289v-206h279v-88h-279v-212h298v-88h-396v682h387zM270 776l-114 -74v66l114 54l114 -54v-66zM270 -30q23 0 38.5 -15.5t15.5 -38.5t-15.5 -38.5t-38.5 -15.5t-38.5 15.5t-15.5 38.5q0 22 16 38t38 16z" />
    <glyph glyph-name="glyph320" unicode="&#x1ec7;" horiz-adv-x="479" 
d="M438 130v-86q-79 -53 -179 -53q-99 0 -160 71q-58 67 -58 168q0 99 56.5 163.5t153.5 64.5q103 0 153 -75q42 -63 42 -172h-316q21 -135 151 -135q74 0 157 54zM132 270h226q-2 50 -29 80.5t-76 30.5q-102 0 -121 -111zM251 526l-103 -67v60l103 48l103 -48v-60zM258 -37
q20 0 34.5 -14.5t14.5 -34.5t-14.5 -34.5t-34.5 -14.5t-34.5 14.5t-14.5 34.5t14.5 34.5t34.5 14.5z" />
    <glyph glyph-name="glyph321" unicode="&#x1ec8;" horiz-adv-x="250" 
d="M174 682v-682h-98v682h98zM92 849l63 35q61 5 61 -45q0 -21 -47 -63t-45 -53q-19 9 -19 30q0 8 28.5 26t28.5 43q0 24 -32 24q-5 0 -8.5 -2t-4.5 -2q-4 0 -13 3.5t-12 3.5z" />
    <glyph glyph-name="glyph322" unicode="&#x1ec9;" horiz-adv-x="219" 
d="M154 449v-449h-89v449h89zM77 604l63 35q61 5 61 -45q0 -21 -47 -63t-45 -53q-19 9 -19 30q0 8 28.5 26t28.5 43q0 24 -32 24q-5 0 -8.5 -2t-4.5 -2q-4 0 -13 3.5t-12 3.5z" />
    <glyph glyph-name="glyph323" unicode="&#x1eca;" horiz-adv-x="250" 
d="M174 682v-682h-98v682h98zM124 -30q23 0 38.5 -15.5t15.5 -38.5t-15.5 -38.5t-38.5 -15.5t-38.5 15.5t-15.5 38.5q0 22 16 38t38 16z" />
    <glyph glyph-name="glyph324" unicode="&#x1ecb;" horiz-adv-x="219" 
d="M154 449v-449h-89v449h89zM158 538q0 -20 -14 -34t-34 -14q-19 0 -33.5 14.5t-14.5 33.5q0 20 14 34t34 14t34 -14t14 -34zM109 -30q20 0 34.5 -14.5t14.5 -34.5t-14.5 -34.5t-34.5 -14.5t-34.5 14.5t-14.5 34.5t14.5 34.5t34.5 14.5z" />
    <glyph glyph-name="glyph325" unicode="&#x1ecc;" horiz-adv-x="823" 
d="M45 341q0 154 107 253q104 97 259 97q158 0 261 -95q106 -98 106 -255q0 -156 -108 -254q-104 -96 -261 -96q-155 0 -258 97q-106 99 -106 253zM146 341q0 -114 75.5 -187t189.5 -73q115 0 190.5 73t75.5 187t-75.5 187t-190.5 73q-114 0 -189.5 -73t-75.5 -187zM410 -40
q23 0 38.5 -15.5t15.5 -38.5t-15.5 -38.5t-38.5 -15.5t-38.5 15.5t-15.5 38.5q0 22 16 38t38 16z" />
    <glyph glyph-name="glyph326" unicode="&#x1ecd;" horiz-adv-x="552" 
d="M273 458q105 0 174 -63t69 -166q0 -108 -67.5 -173t-175.5 -65q-104 0 -170.5 66.5t-66.5 171.5q0 99 68.5 164t168.5 65zM272 378q-64 0 -104.5 -42.5t-40.5 -106.5q0 -68 39 -113t106 -45q72 0 112.5 42.5t40.5 114.5q0 66 -43.5 108t-109.5 42zM273 -39
q20 0 34.5 -14.5t14.5 -34.5t-14.5 -34.5t-34.5 -14.5t-34.5 14.5t-14.5 34.5t14.5 34.5t34.5 14.5z" />
    <glyph glyph-name="glyph327" unicode="&#x1ece;" horiz-adv-x="823" 
d="M45 341q0 154 107 253q104 97 259 97q158 0 261 -95q106 -98 106 -255q0 -156 -108 -254q-104 -96 -261 -96q-155 0 -258 97q-106 99 -106 253zM146 341q0 -114 75.5 -187t189.5 -73q115 0 190.5 73t75.5 187t-75.5 187t-190.5 73q-114 0 -189.5 -73t-75.5 -187zM379 857
l63 35q61 5 61 -45q0 -21 -47 -63t-45 -53q-19 9 -19 30q0 8 28.5 26t28.5 43q0 24 -32 24q-5 0 -8.5 -2t-4.5 -2q-4 0 -13 3.5t-12 3.5z" />
    <glyph glyph-name="glyph328" unicode="&#x1ecf;" horiz-adv-x="552" 
d="M273 458q105 0 174 -63t69 -166q0 -108 -67.5 -173t-175.5 -65q-104 0 -170.5 66.5t-66.5 171.5q0 99 68.5 164t168.5 65zM272 378q-64 0 -104.5 -42.5t-40.5 -106.5q0 -68 39 -113t106 -45q72 0 112.5 42.5t40.5 114.5q0 66 -43.5 108t-109.5 42zM241 612l63 35
q61 5 61 -45q0 -21 -47 -63t-45 -53q-19 9 -19 30q0 8 28.5 26t28.5 43q0 24 -32 24q-5 0 -8.5 -2t-4.5 -2q-4 0 -13 3.5t-12 3.5z" />
    <glyph glyph-name="glyph329" unicode="&#x1ed0;" horiz-adv-x="823" 
d="M45 341q0 154 107 253q104 97 259 97q158 0 261 -95q106 -98 106 -255q0 -156 -108 -254q-104 -96 -261 -96q-155 0 -258 97q-106 99 -106 253zM146 341q0 -114 75.5 -187t189.5 -73q115 0 190.5 73t75.5 187t-75.5 187t-190.5 73q-114 0 -189.5 -73t-75.5 -187zM411 771
l-114 -74v66l114 54l114 -54v-66zM635 894q-23 -23 -39 -35l-69 -52q-27 -20 -32 -14q-6 5 14 31l52 70q15 20 35 39q51 5 51 -18q0 -9 -12 -21z" />
    <glyph glyph-name="glyph330" unicode="&#x1ed1;" horiz-adv-x="552" 
d="M273 458q105 0 174 -63t69 -166q0 -108 -67.5 -173t-175.5 -65q-104 0 -170.5 66.5t-66.5 171.5q0 99 68.5 164t168.5 65zM272 378q-64 0 -104.5 -42.5t-40.5 -106.5q0 -68 39 -113t106 -45q72 0 112.5 42.5t40.5 114.5q0 66 -43.5 108t-109.5 42zM273 525l-103 -67v60
l103 48l103 -48v-60zM439 604l-62 -47q-24 -18 -28 -12q-6 3 12 27l47 63q15 20 31 35q47 5 47 -16q0 -14 -47 -50z" />
    <glyph glyph-name="glyph331" unicode="&#x1ed2;" horiz-adv-x="823" 
d="M45 341q0 154 107 253q104 97 259 97q158 0 261 -95q106 -98 106 -255q0 -156 -108 -254q-104 -96 -261 -96q-155 0 -258 97q-106 99 -106 253zM146 341q0 -114 75.5 -187t189.5 -73q115 0 190.5 73t75.5 187t-75.5 187t-190.5 73q-114 0 -189.5 -73t-75.5 -187zM412 769
l-114 -74v66l114 54l114 -54v-66zM328 791q-5 -6 -32 14l-69 52q-19 14 -39 35q-12 12 -12 21q0 23 51 18q20 -19 35 -39l52 -70q20 -26 14 -31z" />
    <glyph glyph-name="glyph332" unicode="&#x1ed3;" horiz-adv-x="552" 
d="M273 458q105 0 174 -63t69 -166q0 -108 -67.5 -173t-175.5 -65q-104 0 -170.5 66.5t-66.5 171.5q0 99 68.5 164t168.5 65zM272 378q-64 0 -104.5 -42.5t-40.5 -106.5q0 -68 39 -113t106 -45q72 0 112.5 42.5t40.5 114.5q0 66 -43.5 108t-109.5 42zM273 525l-103 -67v60
l103 48l102 -48v-60zM197 545q-4 -6 -28 12l-63 47q-16 12 -35 31q-11 11 -11 19q0 21 46 16q17 -14 32 -35l47 -63q18 -24 12 -27z" />
    <glyph glyph-name="glyph333" unicode="&#x1ed4;" horiz-adv-x="823" 
d="M45 341q0 154 107 253q104 97 259 97q158 0 261 -95q106 -98 106 -255q0 -156 -108 -254q-104 -96 -261 -96q-155 0 -258 97q-106 99 -106 253zM146 341q0 -114 75.5 -187t189.5 -73q115 0 190.5 73t75.5 187t-75.5 187t-190.5 73q-114 0 -189.5 -73t-75.5 -187zM412 771
l-114 -74v66l114 54l114 -54v-66zM484 909l63 35q61 5 61 -45q0 -21 -47 -63t-45 -53q-19 9 -19 30q0 8 28.5 26t28.5 43q0 24 -32 24q-5 0 -8.5 -2t-4.5 -2q-4 0 -13 3.5t-12 3.5z" />
    <glyph glyph-name="glyph334" unicode="&#x1ed5;" horiz-adv-x="552" 
d="M273 458q105 0 174 -63t69 -166q0 -108 -67.5 -173t-175.5 -65q-104 0 -170.5 66.5t-66.5 171.5q0 99 68.5 164t168.5 65zM272 378q-64 0 -104.5 -42.5t-40.5 -106.5q0 -68 39 -113t106 -45q72 0 112.5 42.5t40.5 114.5q0 66 -43.5 108t-109.5 42zM273 526l-103 -67v60
l103 48l103 -48v-60zM345 666l63 35q61 5 61 -45q0 -21 -47 -63t-45 -53q-19 9 -19 30q0 8 28.5 26t28.5 43q0 24 -32 24q-5 0 -8.5 -2t-4.5 -2q-4 0 -13 3.5t-12 3.5z" />
    <glyph glyph-name="glyph335" unicode="&#x1ed6;" horiz-adv-x="823" 
d="M45 341q0 154 107 253q104 97 259 97q158 0 261 -95q106 -98 106 -255q0 -156 -108 -254q-104 -96 -261 -96q-155 0 -258 97q-106 99 -106 253zM146 341q0 -114 75.5 -187t189.5 -73q115 0 190.5 73t75.5 187t-75.5 187t-190.5 73q-114 0 -189.5 -73t-75.5 -187zM411 770
l-114 -74v66l114 54l114 -54v-66zM296 837l-20 28q10 10 37 38q23 24 39 24q13 0 63 -19q36 -19 60 -19q13 0 25 13q19 21 25 24l20 -25q-55 -62 -73 -62q-27 0 -63 19q-50 19 -61 19q-14 0 -29 -15q-11 -12 -23 -25z" />
    <glyph glyph-name="glyph336" unicode="&#x1ed7;" horiz-adv-x="552" 
d="M273 458q105 0 174 -63t69 -166q0 -108 -67.5 -173t-175.5 -65q-104 0 -170.5 66.5t-66.5 171.5q0 99 68.5 164t168.5 65zM272 378q-64 0 -104.5 -42.5t-40.5 -106.5q0 -68 39 -113t106 -45q72 0 112.5 42.5t40.5 114.5q0 66 -43.5 108t-109.5 42zM273 532l-114 -74v66
l114 54l114 -54v-66zM158 599l-20 28q10 10 37 38q23 24 39 24q13 0 63 -19q36 -19 60 -19q13 0 25 13q19 21 25 24l20 -25q-55 -62 -73 -62q-27 0 -63 19q-50 19 -61 19q-14 0 -29 -15q-11 -12 -23 -25z" />
    <glyph glyph-name="glyph337" unicode="&#x1ed8;" horiz-adv-x="823" 
d="M45 341q0 154 107 253q104 97 259 97q158 0 261 -95q106 -98 106 -255q0 -156 -108 -254q-104 -96 -261 -96q-155 0 -258 97q-106 99 -106 253zM146 341q0 -114 75.5 -187t189.5 -73q115 0 190.5 73t75.5 187t-75.5 187t-190.5 73q-114 0 -189.5 -73t-75.5 -187zM411 771
l-114 -74v66l114 54l114 -54v-66zM410 -40q23 0 38.5 -15.5t15.5 -38.5t-15.5 -38.5t-38.5 -15.5t-38.5 15.5t-15.5 38.5q0 22 16 38t38 16z" />
    <glyph glyph-name="glyph338" unicode="&#x1ed9;" horiz-adv-x="552" 
d="M273 458q105 0 174 -63t69 -166q0 -108 -67.5 -173t-175.5 -65q-104 0 -170.5 66.5t-66.5 171.5q0 99 68.5 164t168.5 65zM272 378q-64 0 -104.5 -42.5t-40.5 -106.5q0 -68 39 -113t106 -45q72 0 112.5 42.5t40.5 114.5q0 66 -43.5 108t-109.5 42zM273 525l-103 -67v60
l103 48l103 -48v-60zM273 -39q20 0 34.5 -14.5t14.5 -34.5t-14.5 -34.5t-34.5 -14.5t-34.5 14.5t-14.5 34.5t14.5 34.5t34.5 14.5z" />
    <glyph glyph-name="glyph339" unicode="&#x1eda;" horiz-adv-x="823" 
d="M146 341q0 -114 75.5 -187t189.5 -73q115 0 190.5 73t75.5 187t-75.5 187t-190.5 73q-114 0 -189.5 -73t-75.5 -187zM598 647l69 35q-3 25 -28 40q11 40 34 40q7 0 12 -3q39 -23 39 -72q0 -63 -51 -94q105 -100 105 -252q0 -156 -108 -254q-104 -96 -261 -96
q-155 0 -258 97q-106 99 -106 253t107 253q104 97 259 97q105 0 187 -44zM551 832q-23 -23 -39 -35l-69 -52q-27 -20 -32 -14q-6 5 14 31l52 70q15 20 35 39q51 5 51 -18q0 -9 -12 -21z" />
    <glyph glyph-name="glyph340" unicode="&#x1edb;" horiz-adv-x="552" 
d="M272 378q-64 0 -104.5 -42.5t-40.5 -106.5q0 -68 39 -113t106 -45q72 0 112.5 42.5t40.5 114.5q0 66 -43.5 108t-109.5 42zM399 428l60 21q-3 21 -23 32q9 33 28 33q4 0 9 -3q32 -18 32 -58q0 -49 -42 -76q53 -61 53 -148q0 -108 -67.5 -173t-175.5 -65
q-104 0 -170.5 66.5t-66.5 171.5q0 99 68.5 164t168.5 65q69 0 126 -30zM364 557l-62 -47q-24 -18 -28 -12q-6 3 12 27l47 63q15 20 31 35q47 5 47 -16q0 -14 -47 -50z" />
    <glyph glyph-name="glyph341" unicode="&#x1edc;" horiz-adv-x="823" 
d="M146 341q0 -114 75.5 -187t189.5 -73q115 0 190.5 73t75.5 187t-75.5 187t-190.5 73q-114 0 -189.5 -73t-75.5 -187zM598 647l69 35q-3 25 -28 40q11 40 34 40q7 0 12 -3q39 -23 39 -72q0 -63 -51 -94q105 -100 105 -252q0 -156 -108 -254q-104 -96 -261 -96
q-155 0 -258 97q-106 99 -106 253t107 253q104 97 259 97q105 0 187 -44zM411 731q-5 -6 -32 14l-69 52q-19 14 -39 35q-12 12 -12 21q0 23 51 18q20 -19 35 -39l52 -70q20 -26 14 -31z" />
    <glyph glyph-name="glyph342" unicode="&#x1edd;" horiz-adv-x="552" 
d="M272 378q-64 0 -104.5 -42.5t-40.5 -106.5q0 -68 39 -113t106 -45q72 0 112.5 42.5t40.5 114.5q0 66 -43.5 108t-109.5 42zM399 428l60 21q-3 21 -23 32q9 33 28 33q4 0 9 -3q32 -18 32 -58q0 -49 -42 -76q53 -61 53 -148q0 -108 -67.5 -173t-175.5 -65
q-104 0 -170.5 66.5t-66.5 171.5q0 99 68.5 164t168.5 65q69 0 126 -30zM274 498q-4 -6 -28 12l-63 47q-16 12 -35 31q-11 11 -11 19q0 21 46 16q17 -14 32 -35l47 -63q18 -24 12 -27z" />
    <glyph glyph-name="glyph343" unicode="&#x1ede;" horiz-adv-x="823" 
d="M146 341q0 -114 75.5 -187t189.5 -73q115 0 190.5 73t75.5 187t-75.5 187t-190.5 73q-114 0 -189.5 -73t-75.5 -187zM598 647l69 35q-3 25 -28 40q11 40 34 40q7 0 12 -3q39 -23 39 -72q0 -63 -51 -94q105 -100 105 -252q0 -156 -108 -254q-104 -96 -261 -96
q-155 0 -258 97q-106 99 -106 253t107 253q104 97 259 97q105 0 187 -44zM379 857l63 35q61 5 61 -45q0 -21 -47 -63t-45 -53q-19 9 -19 30q0 8 28.5 26t28.5 43q0 24 -32 24q-5 0 -8.5 -2t-4.5 -2q-4 0 -13 3.5t-12 3.5z" />
    <glyph glyph-name="glyph344" unicode="&#x1edf;" horiz-adv-x="552" 
d="M272 378q-64 0 -104.5 -42.5t-40.5 -106.5q0 -68 39 -113t106 -45q72 0 112.5 42.5t40.5 114.5q0 66 -43.5 108t-109.5 42zM399 428l60 21q-3 21 -23 32q9 33 28 33q4 0 9 -3q32 -18 32 -58q0 -49 -42 -76q53 -61 53 -148q0 -108 -67.5 -173t-175.5 -65
q-104 0 -170.5 66.5t-66.5 171.5q0 99 68.5 164t168.5 65q69 0 126 -30zM241 612l63 35q61 5 61 -45q0 -21 -47 -63t-45 -53q-19 9 -19 30q0 8 28.5 26t28.5 43q0 24 -32 24q-5 0 -8.5 -2t-4.5 -2q-4 0 -13 3.5t-12 3.5z" />
    <glyph glyph-name="glyph345" unicode="&#x1ee0;" horiz-adv-x="823" 
d="M146 341q0 -114 75.5 -187t189.5 -73q115 0 190.5 73t75.5 187t-75.5 187t-190.5 73q-114 0 -189.5 -73t-75.5 -187zM598 647l69 35q-3 25 -28 40q11 40 34 40q7 0 12 -3q39 -23 39 -72q0 -63 -51 -94q105 -100 105 -252q0 -156 -108 -254q-104 -96 -261 -96
q-155 0 -258 97q-106 99 -106 253t107 253q104 97 259 97q105 0 187 -44zM296 733l-20 28q10 10 37 38q23 24 39 24q13 0 63 -19q36 -19 60 -19q13 0 25 13q19 21 25 24l20 -25q-55 -62 -73 -62q-27 0 -63 19q-50 19 -61 19q-14 0 -29 -15q-11 -12 -23 -25z" />
    <glyph glyph-name="glyph346" unicode="&#x1ee1;" horiz-adv-x="552" 
d="M272 378q-64 0 -104.5 -42.5t-40.5 -106.5q0 -68 39 -113t106 -45q72 0 112.5 42.5t40.5 114.5q0 66 -43.5 108t-109.5 42zM399 428l60 21q-3 21 -23 32q9 33 28 33q4 0 9 -3q32 -18 32 -58q0 -49 -42 -76q53 -61 53 -148q0 -108 -67.5 -173t-175.5 -65
q-104 0 -170.5 66.5t-66.5 171.5q0 99 68.5 164t168.5 65q69 0 126 -30zM158 494l-20 28q10 10 37 38q23 24 39 24q13 0 63 -19q36 -19 60 -19q13 0 25 13q19 21 25 24l20 -25q-55 -62 -73 -62q-27 0 -63 19q-50 19 -61 19q-14 0 -29 -15q-11 -12 -23 -25z" />
    <glyph glyph-name="glyph347" unicode="&#x1ee2;" horiz-adv-x="823" 
d="M146 341q0 -114 75.5 -187t189.5 -73q115 0 190.5 73t75.5 187t-75.5 187t-190.5 73q-114 0 -189.5 -73t-75.5 -187zM598 647l69 35q-3 25 -28 40q11 40 34 40q7 0 12 -3q39 -23 39 -72q0 -63 -51 -94q105 -100 105 -252q0 -156 -108 -254q-104 -96 -261 -96
q-155 0 -258 97q-106 99 -106 253t107 253q104 97 259 97q105 0 187 -44zM410 -40q23 0 38.5 -15.5t15.5 -38.5t-15.5 -38.5t-38.5 -15.5t-38.5 15.5t-15.5 38.5q0 22 16 38t38 16z" />
    <glyph glyph-name="glyph348" unicode="&#x1ee3;" horiz-adv-x="552" 
d="M272 378q-64 0 -104.5 -42.5t-40.5 -106.5q0 -68 39 -113t106 -45q72 0 112.5 42.5t40.5 114.5q0 66 -43.5 108t-109.5 42zM399 428l60 21q-3 21 -23 32q9 33 28 33q4 0 9 -3q32 -18 32 -58q0 -49 -42 -76q53 -61 53 -148q0 -108 -67.5 -173t-175.5 -65
q-104 0 -170.5 66.5t-66.5 171.5q0 99 68.5 164t168.5 65q69 0 126 -30zM273 -39q20 0 34.5 -14.5t14.5 -34.5t-14.5 -34.5t-34.5 -14.5t-34.5 14.5t-14.5 34.5t14.5 34.5t34.5 14.5z" />
    <glyph glyph-name="glyph349" unicode="&#x1ee4;" horiz-adv-x="708" 
d="M648 682v-414q0 -137 -84 -209q-79 -68 -219 -68q-126 0 -203 70q-81 73 -81 197v424h98v-403q0 -99 41 -140q58 -58 147 -58q105 0 160 55q43 43 43 149v397h98zM346 -40q23 0 38.5 -15.5t15.5 -38.5t-15.5 -38.5t-38.5 -15.5t-38.5 15.5t-15.5 38.5q0 22 16 38t38 16z
" />
    <glyph glyph-name="glyph350" unicode="&#x1ee5;" 
d="M437 0h-89v57q-61 -66 -133 -66q-76 0 -117 53q-38 48 -38 126v279h89v-285q0 -99 92 -99q62 0 107 63v321h89v-449zM248 -37q20 0 34.5 -14.5t14.5 -34.5t-14.5 -34.5t-34.5 -14.5t-34.5 14.5t-14.5 34.5t14.5 34.5t34.5 14.5z" />
    <glyph glyph-name="glyph351" unicode="&#x1ee6;" horiz-adv-x="708" 
d="M648 682v-414q0 -137 -84 -209q-79 -68 -219 -68q-126 0 -203 70q-81 73 -81 197v424h98v-403q0 -99 41 -140q58 -58 147 -58q105 0 160 55q43 43 43 149v397h98zM316 812l63 35q61 5 61 -45q0 -21 -47 -63t-45 -53q-19 9 -19 30q0 8 28.5 26t28.5 43q0 24 -32 24
q-5 0 -8.5 -2t-4.5 -2q-4 0 -13 3.5t-12 3.5z" />
    <glyph glyph-name="glyph352" unicode="&#x1ee7;" 
d="M437 0h-89v57q-61 -66 -133 -66q-76 0 -117 53q-38 48 -38 126v279h89v-285q0 -99 92 -99q62 0 107 63v321h89v-449zM216 574l63 35q61 5 61 -45q0 -21 -47 -63t-45 -53q-19 9 -19 30q0 8 28.5 26t28.5 43q0 24 -32 24q-5 0 -8.5 -2t-4.5 -2q-4 0 -13 3.5t-12 3.5z" />
    <glyph glyph-name="glyph353" unicode="&#x1ee8;" horiz-adv-x="708" 
d="M647 682q-3 25 -28 40q11 40 34 40q7 0 12 -3q40 -23 40 -72q0 -65 -57 -97v-322q0 -137 -84 -209q-79 -68 -219 -68q-126 0 -203 70q-81 73 -81 197v424h98v-403q0 -99 41 -140q58 -58 147 -58q105 0 160 55q43 43 43 149v397h97zM489 789q-23 -23 -39 -35l-69 -52
q-27 -20 -32 -14q-6 5 14 31l52 70q15 20 35 39q51 5 51 -18q0 -9 -12 -21z" />
    <glyph glyph-name="glyph354" unicode="&#x1ee9;" 
d="M437 376v-376h-89v57q-61 -66 -133 -66q-76 0 -117 53q-38 48 -38 126v279h89v-285q0 -99 92 -99q62 0 107 63v321h87q-3 21 -23 32q9 33 28 33q4 0 9 -3q32 -18 32 -58q0 -52 -44 -77zM338 519l-62 -47q-24 -18 -28 -12q-6 3 12 27l47 63q15 20 31 35q47 5 47 -16
q0 -14 -47 -50z" />
    <glyph glyph-name="glyph355" unicode="&#x1eea;" horiz-adv-x="708" 
d="M647 682q-3 25 -28 40q11 40 34 40q7 0 12 -3q40 -23 40 -72q0 -65 -57 -97v-322q0 -137 -84 -209q-79 -68 -219 -68q-126 0 -203 70q-81 73 -81 197v424h98v-403q0 -99 41 -140q58 -58 147 -58q105 0 160 55q43 43 43 149v397h97zM347 688q-5 -6 -32 14l-69 52
q-19 14 -39 35q-12 12 -12 21q0 23 51 18q20 -19 35 -39l52 -70q20 -26 14 -31z" />
    <glyph glyph-name="glyph356" unicode="&#x1eeb;" 
d="M437 376v-376h-89v57q-61 -66 -133 -66q-76 0 -117 53q-38 48 -38 126v279h89v-285q0 -99 92 -99q62 0 107 63v321h87q-3 21 -23 32q9 33 28 33q4 0 9 -3q32 -18 32 -58q0 -52 -44 -77zM250 460q-4 -6 -28 12l-63 47q-16 12 -35 31q-11 11 -11 19q0 21 46 16
q17 -14 32 -35l47 -63q18 -24 12 -27z" />
    <glyph glyph-name="glyph357" unicode="&#x1eec;" horiz-adv-x="708" 
d="M647 682q-3 25 -28 40q11 40 34 40q7 0 12 -3q40 -23 40 -72q0 -65 -57 -97v-322q0 -137 -84 -209q-79 -68 -219 -68q-126 0 -203 70q-81 73 -81 197v424h98v-403q0 -99 41 -140q58 -58 147 -58q105 0 160 55q43 43 43 149v397h97zM316 812l63 35q61 5 61 -45
q0 -21 -47 -63t-45 -53q-19 9 -19 30q0 8 28.5 26t28.5 43q0 24 -32 24q-5 0 -8.5 -2t-4.5 -2q-4 0 -13 3.5t-12 3.5z" />
    <glyph glyph-name="glyph358" unicode="&#x1eed;" 
d="M437 376v-376h-89v57q-61 -66 -133 -66q-76 0 -117 53q-38 48 -38 126v279h89v-285q0 -99 92 -99q62 0 107 63v321h87q-3 21 -23 32q9 33 28 33q4 0 9 -3q32 -18 32 -58q0 -52 -44 -77zM216 574l63 35q61 5 61 -45q0 -21 -47 -63t-45 -53q-19 9 -19 30q0 8 28.5 26
t28.5 43q0 24 -32 24q-5 0 -8.5 -2t-4.5 -2q-4 0 -13 3.5t-12 3.5z" />
    <glyph glyph-name="glyph359" unicode="&#x1eee;" horiz-adv-x="708" 
d="M647 682q-3 25 -28 40q11 40 34 40q7 0 12 -3q40 -23 40 -72q0 -65 -57 -97v-322q0 -137 -84 -209q-79 -68 -219 -68q-126 0 -203 70q-81 73 -81 197v424h98v-403q0 -99 41 -140q58 -58 147 -58q105 0 160 55q43 43 43 149v397h97zM232 684l-20 28q10 10 37 38
q23 24 39 24q13 0 63 -19q36 -19 60 -19q13 0 25 13q19 21 25 24l20 -25q-55 -62 -73 -62q-27 0 -63 19q-50 19 -61 19q-14 0 -29 -15q-11 -12 -23 -25z" />
    <glyph glyph-name="glyph360" unicode="&#x1eef;" 
d="M437 376v-376h-89v57q-61 -66 -133 -66q-76 0 -117 53q-38 48 -38 126v279h89v-285q0 -99 92 -99q62 0 107 63v321h87q-3 21 -23 32q9 33 28 33q4 0 9 -3q32 -18 32 -58q0 -52 -44 -77zM133 456l-20 28q10 10 37 38q23 24 39 24q13 0 63 -19q36 -19 60 -19q13 0 25 13
q19 21 25 24l20 -25q-55 -62 -73 -62q-27 0 -63 19q-50 19 -61 19q-14 0 -29 -15q-11 -12 -23 -25z" />
    <glyph glyph-name="glyph361" unicode="&#x1ef0;" horiz-adv-x="708" 
d="M647 682q-3 25 -28 40q11 40 34 40q7 0 12 -3q40 -23 40 -72q0 -65 -57 -97v-322q0 -137 -84 -209q-79 -68 -219 -68q-126 0 -203 70q-81 73 -81 197v424h98v-403q0 -99 41 -140q58 -58 147 -58q105 0 160 55q43 43 43 149v397h97zM346 -40q23 0 38.5 -15.5t15.5 -38.5
t-15.5 -38.5t-38.5 -15.5t-38.5 15.5t-15.5 38.5q0 22 16 38t38 16z" />
    <glyph glyph-name="glyph362" unicode="&#x1ef1;" 
d="M437 376v-376h-89v57q-61 -66 -133 -66q-76 0 -117 53q-38 48 -38 126v279h89v-285q0 -99 92 -99q62 0 107 63v321h87q-3 21 -23 32q9 33 28 33q4 0 9 -3q32 -18 32 -58q0 -52 -44 -77zM248 -37q20 0 34.5 -14.5t14.5 -34.5t-14.5 -34.5t-34.5 -14.5t-34.5 14.5
t-14.5 34.5t14.5 34.5t34.5 14.5z" />
    <glyph glyph-name="glyph363" unicode="&#x1ef2;" horiz-adv-x="604" 
d="M301 447l185 235h118l-253 -322v-360h-98v361l-253 321h118zM302 688q-5 -6 -32 14l-69 52q-19 14 -39 35q-12 12 -12 21q0 23 51 18q20 -19 35 -39l52 -70q20 -26 14 -31z" />
    <glyph glyph-name="glyph364" unicode="&#x1ef3;" horiz-adv-x="438" 
d="M438 449l-318 -679h-99l153 326l-174 353h101l121 -253l116 253h100zM222 460q-4 -6 -28 12l-63 47q-16 12 -35 31q-11 11 -11 19q0 21 46 16q17 -14 32 -35l47 -63q18 -24 12 -27z" />
    <glyph glyph-name="glyph365" unicode="&#x1ef4;" horiz-adv-x="604" 
d="M301 447l185 235h118l-253 -322v-360h-98v361l-253 321h118zM303 -30q23 0 38.5 -15.5t15.5 -38.5t-15.5 -38.5t-38.5 -15.5t-38.5 15.5t-15.5 38.5q0 22 16 38t38 16z" />
    <glyph glyph-name="glyph366" unicode="&#x1ef5;" horiz-adv-x="438" 
d="M438 449l-318 -679h-99l153 326l-174 353h101l121 -253l116 253h100zM281 -37q20 0 34.5 -14.5t14.5 -34.5t-14.5 -34.5t-34.5 -14.5t-34.5 14.5t-14.5 34.5t14.5 34.5t34.5 14.5z" />
    <glyph glyph-name="glyph367" unicode="&#x1ef6;" horiz-adv-x="604" 
d="M301 447l185 235h118l-253 -322v-360h-98v361l-253 321h118zM270 812l63 35q61 5 61 -45q0 -21 -47 -63t-45 -53q-19 9 -19 30q0 8 28.5 26t28.5 43q0 24 -32 24q-5 0 -8.5 -2t-4.5 -2q-4 0 -13 3.5t-12 3.5z" />
    <glyph glyph-name="glyph368" unicode="&#x1ef7;" horiz-adv-x="438" 
d="M438 449l-318 -679h-99l153 326l-174 353h101l121 -253l116 253h100zM190 574l63 35q61 5 61 -45q0 -21 -47 -63t-45 -53q-19 9 -19 30q0 8 28.5 26t28.5 43q0 24 -32 24q-5 0 -8.5 -2t-4.5 -2q-4 0 -13 3.5t-12 3.5z" />
    <glyph glyph-name="glyph369" unicode="&#x1ef8;" horiz-adv-x="604" 
d="M301 447l185 235h118l-253 -322v-360h-98v361l-253 321h118zM186 684l-20 28q10 10 37 38q23 24 39 24q13 0 63 -19q36 -19 60 -19q13 0 25 13q19 21 25 24l20 -25q-55 -62 -73 -62q-27 0 -63 19q-50 19 -61 19q-14 0 -29 -15q-11 -12 -23 -25z" />
    <glyph glyph-name="glyph370" unicode="&#x1ef9;" horiz-adv-x="438" 
d="M438 449l-318 -679h-99l153 326l-174 353h101l121 -253l116 253h100zM107 456l-20 28q10 10 37 38q23 24 39 24q13 0 63 -19q36 -19 60 -19q13 0 25 13q19 21 25 24l20 -25q-55 -62 -73 -62q-27 0 -63 19q-50 19 -61 19q-14 0 -29 -15q-11 -12 -23 -25z" />
  </font>
</defs>
</svg>
