<svg id="Layer_5" fill="#e9204f" height="512" viewBox="0 0 64 64" width="512" xmlns="http://www.w3.org/2000/svg"><g><path d="m50.293 34.293 1.414 1.414 1.116-1.116c-1.283 10.359-10.123 18.409-20.823 18.409-.936 0-1.879-.063-2.804-.186l-.264 1.982c1.012.136 2.045.204 3.068.204 11.907 0 21.728-9.094 22.885-20.701l1.408 1.408 1.414-1.414-3.707-3.707z"/><path d="m31.447 12.105-1.606-.803c.724-.17 1.451-.302 2.159-.302 1.931 0 3.841.261 5.679.776l.539-1.926c-2.013-.564-4.106-.85-6.218-.85-1.087 0-2.119.217-3.119.475l1.014-2.028-1.789-.895-2.447 4.895 4.895 2.447z"/><path d="m6.553 35.895 4.895 2.447 2.447-4.895-1.789-.895-.859 1.718c-.145-.6-.247-1.297-.247-2.27 0-1.635.188-3.263.561-4.839l-1.947-.459c-.408 1.726-.614 3.509-.614 5.298 0 1.355.176 2.298.39 3.077l-1.942-.971z"/><path d="m51 3c-6.617 0-12 5.383-12 12 0 .535.047 1.059.116 1.576-2.228-1.033-4.65-1.576-7.116-1.576-2.749 0-5.339.671-7.639 1.834.408-1.206.639-2.492.639-3.834 0-6.617-5.383-12-12-12s-12 5.383-12 12 5.383 12 12 12c1.342 0 2.628-.231 3.834-.639-1.163 2.3-1.834 4.89-1.834 7.639 0 2.466.543 4.888 1.576 7.116-.517-.069-1.041-.116-1.576-.116-6.617 0-12 5.383-12 12s5.383 12 12 12 12-5.383 12-12c0-1-.136-1.966-.368-2.895 1.732.584 3.528.895 5.368.895 9.374 0 17-7.626 17-17 0-1.84-.311-3.636-.895-5.368.929.232 1.895.368 2.895.368 6.617 0 12-5.383 12-12s-5.383-12-12-12zm0 2c5.514 0 10 4.486 10 10 0 2.057-.626 3.97-1.695 5.562-.923-2.249-2.708-4.005-4.925-4.901.989-.914 1.62-2.211 1.62-3.661 0-2.757-2.243-5-5-5s-5 2.243-5 5c0 1.45.631 2.747 1.62 3.661-2.218.896-4.002 2.651-4.925 4.901-1.069-1.592-1.695-3.505-1.695-5.562 0-5.514 4.486-10 10-10zm-3 7c0-1.654 1.346-3 3-3s3 1.346 3 3-1.346 3-3 3-3-1.346-3-3zm-5.919 11h-2.417c-.659-2.028-1.532-3.771-2.573-5.099.929.338 1.825.773 2.68 1.293.53 1.415 1.318 2.701 2.31 3.806zm4.868 10c-.143 2.155-.732 4.188-1.693 6h-5.034c.43-1.84.689-3.861.752-6zm-8.79 6h-12.318c-.462-1.821-.746-3.858-.816-6h13.951c-.07 2.142-.355 4.179-.817 6zm-6.159 8c-2.232 0-4.254-2.387-5.546-6h11.092c-1.292 3.613-3.314 6-5.546 6zm-14.964-14h5.99c.063 2.139.322 4.16.752 6h-5.027c-.989-1.864-1.574-3.904-1.715-6zm1.707-8h5.034c-.43 1.84-.689 3.861-.752 6h-5.975c.144-2.155.733-4.188 1.693-6zm6.281 6c.07-2.142.354-4.179.816-6h12.319c.462 1.821.746 3.858.816 6zm1.43-8c1.292-3.613 3.314-6 5.546-6s4.254 2.387 5.546 6zm.448-5.089c-1.038 1.327-1.908 3.066-2.566 5.089h-4.308c.184-.244.369-.486.567-.718.616-.505 1.182-1.071 1.687-1.687 1.354-1.155 2.916-2.065 4.62-2.684zm-13.902-14.911c5.514 0 10 4.486 10 10 0 2.057-.626 3.97-1.695 5.562-.923-2.249-2.708-4.005-4.925-4.901.989-.914 1.62-2.211 1.62-3.661 0-2.757-2.243-5-5-5s-5 2.243-5 5c0 1.45.631 2.747 1.62 3.661-2.218.896-4.002 2.651-4.925 4.901-1.069-1.592-1.695-3.505-1.695-5.562 0-5.514 4.486-10 10-10zm-3 7c0-1.654 1.346-3 3-3s3 1.346 3 3-1.346 3-3 3-3-1.346-3-3zm3 13c-2.62 0-5-1.021-6.785-2.675.76-3.114 3.533-5.325 6.785-5.325 3.219 0 5.971 2.165 6.764 5.228-.177.184-.347.375-.516.567-1.713 1.376-3.885 2.205-6.248 2.205zm-4.785 35.325c.76-3.114 3.533-5.325 6.785-5.325s6.025 2.211 6.785 5.325c-1.785 1.654-4.165 2.675-6.785 2.675s-5-1.021-6.785-2.675zm3.785-10.325c0-1.654 1.346-3 3-3s3 1.346 3 3-1.346 3-3 3-3-1.346-3-3zm11.305 8.562c-.923-2.249-2.708-4.005-4.925-4.901.989-.914 1.62-2.211 1.62-3.661 0-2.757-2.243-5-5-5s-5 2.243-5 5c0 1.45.631 2.747 1.62 3.661-2.218.896-4.002 2.651-4.925 4.901-1.069-1.592-1.695-3.505-1.695-5.562 0-5.514 4.486-10 10-10s10 4.486 10 10c0 2.057-.626 3.97-1.695 5.562zm-1.686-15.562h2.717c.658 2.024 1.529 3.764 2.568 5.091-.41-.15-.813-.328-1.214-.515-.944-1.853-2.348-3.432-4.071-4.576zm15.479 5.089c1.038-1.327 1.908-3.066 2.566-5.089h4.308c-1.737 2.304-4.115 4.087-6.874 5.089zm9.845-15.089h-5.969c-.063-2.139-.322-4.16-.752-6h4.158c.383.254.784.481 1.195.69.793 1.696 1.245 3.477 1.368 5.31zm-2.728-8.675c.76-3.114 3.533-5.325 6.785-5.325s6.025 2.211 6.785 5.325c-1.785 1.654-4.165 2.675-6.785 2.675s-5-1.021-6.785-2.675z"/></g></svg>