<svg fill="white" height="512" viewBox="0 0 56 56" width="512" xmlns="http://www.w3.org/2000/svg"><g id="002---Cutting-Ribbon"><path id="Shape" d="m13.12 24.6c1-.27 1.27 0 5.3 2.26l4.39-2.41-2.81-1.45c-.4810168-.2483225-.840828-.6810257-.9972431-1.1992685-.156415-.5182427-.0960727-1.0777558.1672431-1.5507315 2.93-5.33-2.02-11.25-9.17-11.25-5.51 0-10 3.59-10 8 0 5.64 7 9.26 13.12 7.6zm-3.12-13.6c4.34 0 8 2.75 8 6s-3.66 6-8 6-8-2.75-8-6 3.66-6 8-6z"/><path id="Shape" d="m36.29 17.74c2.71 2.12 10 6.6 9.72 10 0 1 .36 2.21-2.85 5.2l7.3 3.92c2.54-2.86 3.67-5.79 3.54-8.86.22-5.8-4.13-10.21-8.81-13.66-3.13-2.31-6-4.15-7.33-6.54s-1.7-6.27-1.8-7.8l-3.06 1.85c-.6188022.35726559-1.3811978.35726559-2 0l-2.94-1.72c.0958292 3.99848908 1.0471773 7.9300462 2.79 11.53 1.3694555 2.3838847 3.2224789 4.4549108 5.44 6.08z"/><path id="Shape" d="m51.11 16.87c5.13-3.08 4.63-2.72 4.57-2.87-.59-1.33-3.45-1.33-7.77-.05 1.1270063.9050764 2.1957954 1.8803464 3.2 2.92z"/><path id="Shape" d="m10 47c7.19 0 12.07-5.94 9.14-11.24-.2644445-.4776046-.322159-1.0425522-.1597526-1.5637635.1624065-.5212113.5308169-.9533808 1.0197526-1.1962365l19.74-10.19c-1.44-1.12-2.52-1.83-4.16-3.09-24.29 13.33 14.34-7.82-21 11.52-1.18.65-1.58-.24-4.58-.24-5.51 0-10 3.59-10 8s4.49 8 10 8zm15-20c.5522847 0 1 .4477153 1 1s-.4477153 1-1 1-1-.4477153-1-1 .4477153-1 1-1zm-15 6c4 0 8 2.43 8 6 0 3.25-3.66 6-8 6s-8-2.75-8-6 3.66-6 8-6z"/><path id="Shape" d="m54.79 42.75c.3866426-.1179647.7082076-.3889465.89-.75 0-.1 1.85.92-23.82-12.87l-4.79 2.48 15.27 8.39c2.89 1.27 9.49 3.89 12.45 2.75z"/><path id="Shape" d="m35.78 38.66c-2.0026341 1.5488391-3.6782792 3.4793998-4.93 5.68-1.7432779 3.5926874-2.6947267 7.5178397-2.79 11.51l2.94-1.71c.633865-.3808262 1.426135-.3808262 2.06 0l3 1.83c.09-1.52.45-5.34 1.8-7.83 1.2-2.19 3.66-3.88 5.82-5.45-2.42-.94-1.85-.69-7.9-4.03z"/></g></svg>