<svg id="Layer_5" fill="white" height="512" viewBox="0 0 64 64" width="512" xmlns="http://www.w3.org/2000/svg"><g><path d="m6 17h33v5.541c1.347-.184 2.682-.419 4-.714v-11.853c-.838.635-1.87 1.026-3 1.026h-34c-1.654 0-3 1.346-3 3s1.346 3 3 3z"/><path d="m43 6c0-1.654-1.346-3-3-3h-21v6h21c1.654 0 3-1.346 3-3z"/><path d="m39 39.44c.67.088 1.337.185 2 .299v-15.478c-.663.114-1.33.211-2 .299z"/><path d="m39 53h4v-10.827c-1.318-.295-2.653-.53-4-.714z"/><path d="m3 17.998v40.002c0 1.654 1.346 3 3 3h31v-42h-31c-1.125 0-2.164-.374-3-1.002zm2 19.002h2v2h-2zm0 4h18v2h-18zm4-2v-2h14v2zm-4 8v-2h18v2zm19 11c-1.105 0-2-.895-2-2s.895-2 2-2 2 .895 2 2-.895 2-2 2zm8 0c-1.105 0-2-.895-2-2s.895-2 2-2 2 .895 2 2-.895 2-2 2zm2-24h-28v-12h28z"/><path d="m58 16c-.551 0-1 .449-1 1v30c0 .551.449 1 1 1 1.654 0 3-1.346 3-3v-26c0-1.654-1.346-3-3-3z"/><path d="m43 40.118c4.163.891 8.177 2.317 12 4.243v-24.722c-3.823 1.926-7.837 3.352-12 4.243z"/></g></svg>